<?xml version="1.0" encoding="utf-8" standalone="no"?>
<!DOCTYPE svg PUBLIC "-//W3C//DTD SVG 1.1//EN"
  "http://www.w3.org/Graphics/SVG/1.1/DTD/svg11.dtd">
<!-- Created with matplotlib (http://matplotlib.org/) -->
<svg height="288pt" version="1.1" viewBox="0 0 720 288" width="720pt" xmlns="http://www.w3.org/2000/svg" xmlns:xlink="http://www.w3.org/1999/xlink">
 <defs>
  <style type="text/css">
*{stroke-linecap:butt;stroke-linejoin:round;}
  </style>
 </defs>
 <g id="figure_1">
  <g id="patch_1">
   <path d="
M0 288
L720 288
L720 0
L0 0
z
" style="fill:none;"/>
  </g>
  <g id="axes_1">
   <g id="patch_2">
    <path d="
M90 252
L648 252
L648 28.8
L90 28.8
z
" style="fill:none;"/>
   </g>
   <g id="matplotlib.axis_1">
    <g id="xtick_1">
     <g id="line2d_1">
      <path clip-path="url(#p9f76a1e9e4)" d="
M90 252
L90 28.8" style="fill:none;stroke:#000000;stroke-dasharray:1.000000,3.000000;stroke-dashoffset:0.0;stroke-width:0.5;"/>
     </g>
     <g id="line2d_2">
      <defs>
       <path d="
M0 0
L0 0" id="m8bc147ca23" style="stroke:#555555;stroke-width:0.5;"/>
      </defs>
      <g>
       <use style="fill:#555555;stroke:#555555;stroke-width:0.5;" x="90.0" xlink:href="#m8bc147ca23" y="252.0"/>
      </g>
     </g>
     <g id="line2d_3">
      <g>
       <use style="fill:#555555;stroke:#555555;stroke-width:0.5;" x="90.0" xlink:href="#m8bc147ca23" y="28.8"/>
      </g>
     </g>
     <g id="text_1">
      <!-- $\mathdefault{0.0}$ -->
      <defs>
       <path d="
M29.6875 11.1875
Q32.2812 11.1875 34.0312 9.42188
Q35.7969 7.67188 35.7969 5.07812
Q35.7969 2.4375 34.0156 0.5625
Q32.2344 -1.3125 29.6875 -1.3125
Q27.2031 -1.3125 25.4375 0.5625
Q23.6875 2.4375 23.6875 5.07812
Q23.6875 7.71875 25.4219 9.45312
Q27.1562 11.1875 29.6875 11.1875" id="AndaleMono-2e"/>
       <path d="
M29.8906 70.2188
Q40.8281 70.2188 46.7031 60.8125
Q52.5938 51.4219 52.5938 34.4219
Q52.5938 17.9688 46.875 8.32812
Q41.1562 -1.3125 29.8906 -1.3125
Q19 -1.3125 13.0781 8.0625
Q7.17188 17.4375 7.17188 34.4219
Q7.17188 50.9219 12.9062 60.5625
Q18.6562 70.2188 29.8906 70.2188
M29.8906 5.71875
Q37.1094 5.71875 40.5938 12.5781
Q44.0938 19.4375 44.0938 34.4219
Q44.0938 49.4688 40.5938 56.2812
Q37.1094 63.0938 29.8906 63.0938
Q22.75 63.0938 19.2344 56.1094
Q15.7188 49.125 15.7188 34.4219
Q15.7188 19.5312 19.2031 12.625
Q22.7031 5.71875 29.8906 5.71875
M29.6875 41.75
Q32.7656 41.75 34.8906 39.625
Q37.0156 37.5 37.0156 34.4219
Q37.0156 31.25 34.8594 28.9688
Q32.7188 26.7031 29.6875 26.7031
Q26.7031 26.7031 24.5781 28.9688
Q22.4688 31.25 22.4688 34.4219
Q22.4688 37.5469 24.5312 39.6406
Q26.6094 41.75 29.6875 41.75" id="AndaleMono-30"/>
      </defs>
      <g style="fill:#555555;" transform="translate(82.75 264.8890625)scale(0.1 -0.1)">
       <use transform="translate(0.0 0.78125)" xlink:href="#AndaleMono-30"/>
       <use transform="translate(60.009765625 0.78125)" xlink:href="#AndaleMono-2e"/>
       <use transform="translate(84.12109375 0.78125)" xlink:href="#AndaleMono-30"/>
      </g>
     </g>
    </g>
    <g id="xtick_2">
     <g id="line2d_4">
      <path clip-path="url(#p9f76a1e9e4)" d="
M159.75 252
L159.75 28.8" style="fill:none;stroke:#000000;stroke-dasharray:1.000000,3.000000;stroke-dashoffset:0.0;stroke-width:0.5;"/>
     </g>
     <g id="line2d_5">
      <g>
       <use style="fill:#555555;stroke:#555555;stroke-width:0.5;" x="159.75" xlink:href="#m8bc147ca23" y="252.0"/>
      </g>
     </g>
     <g id="line2d_6">
      <g>
       <use style="fill:#555555;stroke:#555555;stroke-width:0.5;" x="159.75" xlink:href="#m8bc147ca23" y="28.8"/>
      </g>
     </g>
     <g id="text_2">
      <!-- $\mathdefault{0.5}$ -->
      <defs>
       <path d="
M21.1875 41.1094
Q24.5156 42 27.6875 42
Q37.4531 42 43.1094 36.0156
Q48.7812 30.0312 48.7812 21.0938
Q48.7812 11.7188 42.1875 5.20312
Q35.5938 -1.3125 26.125 -1.3125
Q17.0938 -1.3125 10.9844 1.70312
L12.5938 8.5
Q19.2344 5.71875 26.3125 5.71875
Q32.625 5.71875 36.5 9.76562
Q40.375 13.8125 40.375 21.0938
Q40.375 27.9844 36.7188 31.6875
Q33.0625 35.4062 27.2969 35.4062
Q23.0938 35.4062 19 33.7969
L14.2031 35.9844
L14.2031 68.8906
L45.7031 68.8906
L45.7031 61.9219
L21.1875 61.9219
z
" id="AndaleMono-35"/>
      </defs>
      <g style="fill:#555555;" transform="translate(152.5 264.8890625)scale(0.1 -0.1)">
       <use transform="translate(0.0 0.78125)" xlink:href="#AndaleMono-30"/>
       <use transform="translate(60.009765625 0.78125)" xlink:href="#AndaleMono-2e"/>
       <use transform="translate(84.12109375 0.78125)" xlink:href="#AndaleMono-35"/>
      </g>
     </g>
    </g>
    <g id="xtick_3">
     <g id="line2d_7">
      <path clip-path="url(#p9f76a1e9e4)" d="
M229.5 252
L229.5 28.8" style="fill:none;stroke:#000000;stroke-dasharray:1.000000,3.000000;stroke-dashoffset:0.0;stroke-width:0.5;"/>
     </g>
     <g id="line2d_8">
      <g>
       <use style="fill:#555555;stroke:#555555;stroke-width:0.5;" x="229.5" xlink:href="#m8bc147ca23" y="252.0"/>
      </g>
     </g>
     <g id="line2d_9">
      <g>
       <use style="fill:#555555;stroke:#555555;stroke-width:0.5;" x="229.5" xlink:href="#m8bc147ca23" y="28.8"/>
      </g>
     </g>
     <g id="text_3">
      <!-- $\mathdefault{1.0}$ -->
      <defs>
       <path d="
M49.7031 0
L13.4844 0
L13.4844 6.98438
L28.0781 6.98438
L28.0781 60.5
L14.3125 53.6094
L14.3125 61.625
L29.2031 69.2812
L36.0781 69.2812
L36.0781 6.98438
L49.7031 6.98438
z
" id="AndaleMono-31"/>
      </defs>
      <g style="fill:#555555;" transform="translate(222.25 264.8890625)scale(0.1 -0.1)">
       <use transform="translate(0.0 0.78125)" xlink:href="#AndaleMono-31"/>
       <use transform="translate(60.009765625 0.78125)" xlink:href="#AndaleMono-2e"/>
       <use transform="translate(84.12109375 0.78125)" xlink:href="#AndaleMono-30"/>
      </g>
     </g>
    </g>
    <g id="xtick_4">
     <g id="line2d_10">
      <path clip-path="url(#p9f76a1e9e4)" d="
M299.25 252
L299.25 28.8" style="fill:none;stroke:#000000;stroke-dasharray:1.000000,3.000000;stroke-dashoffset:0.0;stroke-width:0.5;"/>
     </g>
     <g id="line2d_11">
      <g>
       <use style="fill:#555555;stroke:#555555;stroke-width:0.5;" x="299.25" xlink:href="#m8bc147ca23" y="252.0"/>
      </g>
     </g>
     <g id="line2d_12">
      <g>
       <use style="fill:#555555;stroke:#555555;stroke-width:0.5;" x="299.25" xlink:href="#m8bc147ca23" y="28.8"/>
      </g>
     </g>
     <g id="text_4">
      <!-- $\mathdefault{1.5}$ -->
      <g style="fill:#555555;" transform="translate(292.0 264.8890625)scale(0.1 -0.1)">
       <use transform="translate(0.0 0.71875)" xlink:href="#AndaleMono-31"/>
       <use transform="translate(60.009765625 0.71875)" xlink:href="#AndaleMono-2e"/>
       <use transform="translate(84.12109375 0.71875)" xlink:href="#AndaleMono-35"/>
      </g>
     </g>
    </g>
    <g id="xtick_5">
     <g id="line2d_13">
      <path clip-path="url(#p9f76a1e9e4)" d="
M369 252
L369 28.8" style="fill:none;stroke:#000000;stroke-dasharray:1.000000,3.000000;stroke-dashoffset:0.0;stroke-width:0.5;"/>
     </g>
     <g id="line2d_14">
      <g>
       <use style="fill:#555555;stroke:#555555;stroke-width:0.5;" x="369.0" xlink:href="#m8bc147ca23" y="252.0"/>
      </g>
     </g>
     <g id="line2d_15">
      <g>
       <use style="fill:#555555;stroke:#555555;stroke-width:0.5;" x="369.0" xlink:href="#m8bc147ca23" y="28.8"/>
      </g>
     </g>
     <g id="text_5">
      <!-- $\mathdefault{2.0}$ -->
      <defs>
       <path d="
M47.9062 0
L10.0156 0
L10.0156 5.8125
Q24.4219 21.875 28.7188 27.3438
Q33.0156 32.8125 35.6875 38.8125
Q38.375 44.8281 38.375 50.7812
Q38.375 56.5469 34.875 59.8594
Q31.3906 63.1875 25.0938 63.1875
Q20.2656 63.1875 12.1094 60.2031
L10.9844 67.0938
Q18.3594 70.2188 26.4219 70.2188
Q35.6406 70.2188 41.2812 65.0156
Q46.9219 59.8125 46.9219 51.125
Q46.9219 44.9219 44.0156 38.8125
Q41.1094 32.7188 36.5625 27.0938
Q32.0312 21.4844 18.8906 6.98438
L47.9062 6.98438
z
" id="AndaleMono-32"/>
      </defs>
      <g style="fill:#555555;" transform="translate(361.75 264.8890625)scale(0.1 -0.1)">
       <use transform="translate(0.0 0.78125)" xlink:href="#AndaleMono-32"/>
       <use transform="translate(60.009765625 0.78125)" xlink:href="#AndaleMono-2e"/>
       <use transform="translate(84.12109375 0.78125)" xlink:href="#AndaleMono-30"/>
      </g>
     </g>
    </g>
    <g id="xtick_6">
     <g id="line2d_16">
      <path clip-path="url(#p9f76a1e9e4)" d="
M438.75 252
L438.75 28.8" style="fill:none;stroke:#000000;stroke-dasharray:1.000000,3.000000;stroke-dashoffset:0.0;stroke-width:0.5;"/>
     </g>
     <g id="line2d_17">
      <g>
       <use style="fill:#555555;stroke:#555555;stroke-width:0.5;" x="438.75" xlink:href="#m8bc147ca23" y="252.0"/>
      </g>
     </g>
     <g id="line2d_18">
      <g>
       <use style="fill:#555555;stroke:#555555;stroke-width:0.5;" x="438.75" xlink:href="#m8bc147ca23" y="28.8"/>
      </g>
     </g>
     <g id="text_6">
      <!-- $\mathdefault{2.5}$ -->
      <g style="fill:#555555;" transform="translate(431.5 264.8890625)scale(0.1 -0.1)">
       <use transform="translate(0.0 0.78125)" xlink:href="#AndaleMono-32"/>
       <use transform="translate(60.009765625 0.78125)" xlink:href="#AndaleMono-2e"/>
       <use transform="translate(84.12109375 0.78125)" xlink:href="#AndaleMono-35"/>
      </g>
     </g>
    </g>
    <g id="xtick_7">
     <g id="line2d_19">
      <path clip-path="url(#p9f76a1e9e4)" d="
M508.5 252
L508.5 28.8" style="fill:none;stroke:#000000;stroke-dasharray:1.000000,3.000000;stroke-dashoffset:0.0;stroke-width:0.5;"/>
     </g>
     <g id="line2d_20">
      <g>
       <use style="fill:#555555;stroke:#555555;stroke-width:0.5;" x="508.5" xlink:href="#m8bc147ca23" y="252.0"/>
      </g>
     </g>
     <g id="line2d_21">
      <g>
       <use style="fill:#555555;stroke:#555555;stroke-width:0.5;" x="508.5" xlink:href="#m8bc147ca23" y="28.8"/>
      </g>
     </g>
     <g id="text_7">
      <!-- $\mathdefault{3.0}$ -->
      <defs>
       <path d="
M34.2812 37.0156
Q40.5781 35.25 44.375 30.5781
Q48.1875 25.9219 48.1875 20.125
Q48.1875 11.0312 41.1094 4.85938
Q34.0312 -1.3125 24.4219 -1.3125
Q16.2188 -1.3125 9.71875 2.29688
L11.2812 8.89062
Q18.0625 5.71875 24.7031 5.71875
Q30.9531 5.71875 35.375 9.59375
Q39.7969 13.4844 39.7969 19.5781
Q39.7969 25.5938 35.0625 29.3438
Q30.3281 33.1094 22.5156 33.1094
L20.4062 33.1094
L20.4062 39.7031
L21 39.7031
Q28.5156 39.7031 33.3906 43.2344
Q38.2812 46.7812 38.2812 52.7812
Q38.2812 57.6719 34.7656 60.4219
Q31.25 63.1875 25.0938 63.1875
Q19.7812 63.1875 13.1875 60.2969
L12.1094 67.1875
Q18.75 70.2188 25.4844 70.2188
Q34.7188 70.2188 40.7031 65.3594
Q46.6875 60.5 46.6875 52.875
Q46.6875 47.6094 43.0469 43.0469
Q39.4062 38.4844 34.2812 37.3125
z
" id="AndaleMono-33"/>
      </defs>
      <g style="fill:#555555;" transform="translate(501.25 264.8890625)scale(0.1 -0.1)">
       <use transform="translate(0.0 0.78125)" xlink:href="#AndaleMono-33"/>
       <use transform="translate(60.009765625 0.78125)" xlink:href="#AndaleMono-2e"/>
       <use transform="translate(84.12109375 0.78125)" xlink:href="#AndaleMono-30"/>
      </g>
     </g>
    </g>
    <g id="xtick_8">
     <g id="line2d_22">
      <path clip-path="url(#p9f76a1e9e4)" d="
M578.25 252
L578.25 28.8" style="fill:none;stroke:#000000;stroke-dasharray:1.000000,3.000000;stroke-dashoffset:0.0;stroke-width:0.5;"/>
     </g>
     <g id="line2d_23">
      <g>
       <use style="fill:#555555;stroke:#555555;stroke-width:0.5;" x="578.25" xlink:href="#m8bc147ca23" y="252.0"/>
      </g>
     </g>
     <g id="line2d_24">
      <g>
       <use style="fill:#555555;stroke:#555555;stroke-width:0.5;" x="578.25" xlink:href="#m8bc147ca23" y="28.8"/>
      </g>
     </g>
     <g id="text_8">
      <!-- $\mathdefault{3.5}$ -->
      <g style="fill:#555555;" transform="translate(571.0 264.8890625)scale(0.1 -0.1)">
       <use transform="translate(0.0 0.78125)" xlink:href="#AndaleMono-33"/>
       <use transform="translate(60.009765625 0.78125)" xlink:href="#AndaleMono-2e"/>
       <use transform="translate(84.12109375 0.78125)" xlink:href="#AndaleMono-35"/>
      </g>
     </g>
    </g>
    <g id="xtick_9">
     <g id="line2d_25">
      <path clip-path="url(#p9f76a1e9e4)" d="
M648 252
L648 28.8" style="fill:none;stroke:#000000;stroke-dasharray:1.000000,3.000000;stroke-dashoffset:0.0;stroke-width:0.5;"/>
     </g>
     <g id="line2d_26">
      <g>
       <use style="fill:#555555;stroke:#555555;stroke-width:0.5;" x="648.0" xlink:href="#m8bc147ca23" y="252.0"/>
      </g>
     </g>
     <g id="line2d_27">
      <g>
       <use style="fill:#555555;stroke:#555555;stroke-width:0.5;" x="648.0" xlink:href="#m8bc147ca23" y="28.8"/>
      </g>
     </g>
     <g id="text_9">
      <!-- $\mathdefault{4.0}$ -->
      <defs>
       <path d="
M52.3906 15.9219
L43.8906 15.9219
L43.8906 0
L35.8906 0
L35.8906 15.9219
L5.90625 15.9219
L5.90625 22.0156
L33.1094 68.8906
L43.8906 68.8906
L43.8906 22.9062
L52.3906 22.9062
z

M35.8906 22.9062
L35.8906 60.9844
L14.0156 22.9062
z
" id="AndaleMono-34"/>
      </defs>
      <g style="fill:#555555;" transform="translate(640.75 264.8890625)scale(0.1 -0.1)">
       <use transform="translate(0.0 0.78125)" xlink:href="#AndaleMono-34"/>
       <use transform="translate(60.009765625 0.78125)" xlink:href="#AndaleMono-2e"/>
       <use transform="translate(84.12109375 0.78125)" xlink:href="#AndaleMono-30"/>
      </g>
     </g>
    </g>
    <g id="text_10">
     <!-- $\times\mathdefault{10^{4}}\mathdefault{}$ -->
     <defs>
      <path d="
M14.7031 2.875
Q14.7031 3.65625 15.1875 4.29688
L35.9844 25
L15.1875 45.7969
Q14.7031 46.2969 14.7031 47.125
Q14.7031 47.8594 15.2812 48.4844
Q15.875 49.125 16.7031 49.125
Q17.3906 49.125 18.2188 48.4844
L38.9219 27.7812
L59.5156 48.4844
Q60.3594 49.125 60.9844 49.125
Q61.8125 49.125 62.3906 48.5312
Q62.9844 47.9531 62.9844 47.125
Q62.9844 46.2969 62.5 45.7969
L41.7031 25
L62.5 4.29688
Q62.9844 3.65625 62.9844 2.875
Q62.9844 2.04688 62.3906 1.45312
Q61.8125 0.875 60.9844 0.875
Q60.25 0.875 59.5156 1.60938
L38.9219 22.2188
L18.2188 1.60938
Q17.4844 0.875 16.7031 0.875
Q15.875 0.875 15.2812 1.51562
Q14.7031 2.15625 14.7031 2.875" id="Cmsy10-a3"/>
     </defs>
     <g style="fill:#555555;" transform="translate(622.4 278.4890625)scale(0.1 -0.1)">
      <use transform="translate(17.55859375 0.8203125)" xlink:href="#Cmsy10-a3"/>
      <use transform="translate(83.3984375 0.8203125)" xlink:href="#AndaleMono-31"/>
      <use transform="translate(143.408203125 0.8203125)" xlink:href="#AndaleMono-30"/>
      <use transform="translate(203.41796875 55.7765625)scale(0.7)" xlink:href="#AndaleMono-34"/>
     </g>
    </g>
   </g>
   <g id="matplotlib.axis_2">
    <g id="ytick_1">
     <g id="line2d_28">
      <path clip-path="url(#p9f76a1e9e4)" d="
M90 252
L648 252" style="fill:none;stroke:#000000;stroke-dasharray:1.000000,3.000000;stroke-dashoffset:0.0;stroke-width:0.5;"/>
     </g>
     <g id="line2d_29">
      <g>
       <use style="fill:#555555;stroke:#555555;stroke-width:0.5;" x="90.0" xlink:href="#m8bc147ca23" y="252.0"/>
      </g>
     </g>
     <g id="line2d_30">
      <g>
       <use style="fill:#555555;stroke:#555555;stroke-width:0.5;" x="648.0" xlink:href="#m8bc147ca23" y="252.0"/>
      </g>
     </g>
     <g id="text_11">
      <!-- −500 -->
      <defs>
       <path d="
M53.0781 31.9844
L6.89062 31.9844
L6.89062 38.375
L53.0781 38.375
z
" id="AndaleMono-2212"/>
      </defs>
      <g style="fill:#555555;" transform="translate(61.425 254.43828125)scale(0.1 -0.1)">
       <use xlink:href="#AndaleMono-2212"/>
       <use x="60.009765625" xlink:href="#AndaleMono-35"/>
       <use x="120.01953125" xlink:href="#AndaleMono-30"/>
       <use x="180.029296875" xlink:href="#AndaleMono-30"/>
      </g>
     </g>
    </g>
    <g id="ytick_2">
     <g id="line2d_31">
      <path clip-path="url(#p9f76a1e9e4)" d="
M90 196.2
L648 196.2" style="fill:none;stroke:#000000;stroke-dasharray:1.000000,3.000000;stroke-dashoffset:0.0;stroke-width:0.5;"/>
     </g>
     <g id="line2d_32">
      <g>
       <use style="fill:#555555;stroke:#555555;stroke-width:0.5;" x="90.0" xlink:href="#m8bc147ca23" y="196.2"/>
      </g>
     </g>
     <g id="line2d_33">
      <g>
       <use style="fill:#555555;stroke:#555555;stroke-width:0.5;" x="648.0" xlink:href="#m8bc147ca23" y="196.2"/>
      </g>
     </g>
     <g id="text_12">
      <!-- −450 -->
      <g style="fill:#555555;" transform="translate(61.425 198.63828125)scale(0.1 -0.1)">
       <use xlink:href="#AndaleMono-2212"/>
       <use x="60.009765625" xlink:href="#AndaleMono-34"/>
       <use x="120.01953125" xlink:href="#AndaleMono-35"/>
       <use x="180.029296875" xlink:href="#AndaleMono-30"/>
      </g>
     </g>
    </g>
    <g id="ytick_3">
     <g id="line2d_34">
      <path clip-path="url(#p9f76a1e9e4)" d="
M90 140.4
L648 140.4" style="fill:none;stroke:#000000;stroke-dasharray:1.000000,3.000000;stroke-dashoffset:0.0;stroke-width:0.5;"/>
     </g>
     <g id="line2d_35">
      <g>
       <use style="fill:#555555;stroke:#555555;stroke-width:0.5;" x="90.0" xlink:href="#m8bc147ca23" y="140.4"/>
      </g>
     </g>
     <g id="line2d_36">
      <g>
       <use style="fill:#555555;stroke:#555555;stroke-width:0.5;" x="648.0" xlink:href="#m8bc147ca23" y="140.4"/>
      </g>
     </g>
     <g id="text_13">
      <!-- −400 -->
      <g style="fill:#555555;" transform="translate(61.425 142.83828125)scale(0.1 -0.1)">
       <use xlink:href="#AndaleMono-2212"/>
       <use x="60.009765625" xlink:href="#AndaleMono-34"/>
       <use x="120.01953125" xlink:href="#AndaleMono-30"/>
       <use x="180.029296875" xlink:href="#AndaleMono-30"/>
      </g>
     </g>
    </g>
    <g id="ytick_4">
     <g id="line2d_37">
      <path clip-path="url(#p9f76a1e9e4)" d="
M90 84.6
L648 84.6" style="fill:none;stroke:#000000;stroke-dasharray:1.000000,3.000000;stroke-dashoffset:0.0;stroke-width:0.5;"/>
     </g>
     <g id="line2d_38">
      <g>
       <use style="fill:#555555;stroke:#555555;stroke-width:0.5;" x="90.0" xlink:href="#m8bc147ca23" y="84.6"/>
      </g>
     </g>
     <g id="line2d_39">
      <g>
       <use style="fill:#555555;stroke:#555555;stroke-width:0.5;" x="648.0" xlink:href="#m8bc147ca23" y="84.6"/>
      </g>
     </g>
     <g id="text_14">
      <!-- −350 -->
      <g style="fill:#555555;" transform="translate(61.425 87.03828125)scale(0.1 -0.1)">
       <use xlink:href="#AndaleMono-2212"/>
       <use x="60.009765625" xlink:href="#AndaleMono-33"/>
       <use x="120.01953125" xlink:href="#AndaleMono-35"/>
       <use x="180.029296875" xlink:href="#AndaleMono-30"/>
      </g>
     </g>
    </g>
    <g id="ytick_5">
     <g id="line2d_40">
      <path clip-path="url(#p9f76a1e9e4)" d="
M90 28.8
L648 28.8" style="fill:none;stroke:#000000;stroke-dasharray:1.000000,3.000000;stroke-dashoffset:0.0;stroke-width:0.5;"/>
     </g>
     <g id="line2d_41">
      <g>
       <use style="fill:#555555;stroke:#555555;stroke-width:0.5;" x="90.0" xlink:href="#m8bc147ca23" y="28.8"/>
      </g>
     </g>
     <g id="line2d_42">
      <g>
       <use style="fill:#555555;stroke:#555555;stroke-width:0.5;" x="648.0" xlink:href="#m8bc147ca23" y="28.8"/>
      </g>
     </g>
     <g id="text_15">
      <!-- −300 -->
      <g style="fill:#555555;" transform="translate(61.425 31.23828125)scale(0.1 -0.1)">
       <use xlink:href="#AndaleMono-2212"/>
       <use x="60.009765625" xlink:href="#AndaleMono-33"/>
       <use x="120.01953125" xlink:href="#AndaleMono-30"/>
       <use x="180.029296875" xlink:href="#AndaleMono-30"/>
      </g>
     </g>
    </g>
   </g>
   <g id="line2d_43">
    <path clip-path="url(#p9f76a1e9e4)" d="
M90 86.7204
L90.6975 86.7204
L90.6975 82.7028
L91.395 82.7028
L91.395 85.158
L92.0925 85.158
L92.0925 89.622
L92.79 89.622
L92.79 89.2872
L93.4875 89.2872
L93.4875 91.6308
L94.185 91.6308
L94.185 93.528
L94.8825 93.528
L94.8825 91.5192
L95.58 91.5192
L95.58 89.9568
L96.2775 89.9568
L96.2775 88.6176
L96.975 88.6176
L96.975 89.1756
L97.6725 89.1756
L97.6725 85.716
L98.37 85.716
L98.37 87.6132
L99.0675 87.6132
L99.0675 92.0772
L99.765 92.0772
L99.765 88.2828
L100.463 88.2828
L100.463 88.8408
L101.16 88.8408
L101.16 91.6308
L101.858 91.6308
L101.858 90.0684
L102.555 90.0684
L102.555 87.948
L103.252 87.948
L103.252 91.9656
L103.95 91.9656
L103.95 84.7116
L104.648 84.7116
L104.648 85.6044
L105.345 85.6044
L105.345 91.0728
L106.043 91.0728
L106.043 90.2916
L106.74 90.2916
L106.74 88.3944
L107.438 88.3944
L107.438 87.6132
L108.135 87.6132
L108.135 87.5016
L108.832 87.5016
L108.832 85.6044
L109.53 85.6044
L109.53 86.832
L110.227 86.832
L110.227 85.6044
L110.925 85.6044
L110.925 92.1888
L111.623 92.1888
L111.623 89.2872
L112.32 89.2872
L112.32 82.8144
L113.017 82.8144
L113.017 92.1888
L113.715 92.1888
L113.715 87.0552
L114.412 87.0552
L114.412 92.6352
L115.11 92.6352
L115.11 89.3988
L115.808 89.3988
L115.808 86.7204
L116.505 86.7204
L116.505 80.8056
L117.203 80.8056
L117.203 84.9348
L117.9 84.9348
L117.9 84.6
L118.597 84.6
L118.597 85.9392
L119.295 85.9392
L119.295 86.7204
L119.993 86.7204
L119.993 91.296
L120.69 91.296
L120.69 88.2828
L121.388 88.2828
L121.388 82.0332
L122.085 82.0332
L122.085 84.4884
L122.782 84.4884
L122.782 85.716
L123.48 85.716
L123.48 83.8188
L124.178 83.8188
L124.178 91.854
L124.875 91.854
L124.875 87.39
L125.572 87.39
L125.572 85.8276
L126.27 85.8276
L126.27 87.8364
L126.968 87.8364
L126.968 88.1712
L127.665 88.1712
L127.665 86.7204
L128.363 86.7204
L128.363 83.0376
L129.06 83.0376
L129.06 84.1536
L129.757 84.1536
L129.757 86.1624
L130.455 86.1624
L130.455 84.9348
L131.153 84.9348
L131.153 80.5824
L131.85 80.5824
L131.85 84.3768
L132.548 84.3768
L132.548 86.7204
L133.245 86.7204
L133.245 83.5956
L133.942 83.5956
L133.942 84.8232
L134.64 84.8232
L134.64 86.4972
L135.338 86.4972
L135.338 85.4928
L136.035 85.4928
L136.035 86.274
L136.733 86.274
L136.733 83.5956
L137.43 83.5956
L137.43 82.4796
L138.127 82.4796
L138.127 85.3812
L138.825 85.3812
L138.825 84.6
L139.523 84.6
L139.523 84.1536
L140.22 84.1536
L140.22 86.0508
L140.918 86.0508
L140.918 78.9084
L141.615 78.9084
L141.615 80.4708
L142.312 80.4708
L142.312 85.2696
L143.01 85.2696
L143.01 85.158
L143.708 85.158
L143.708 86.9436
L144.405 86.9436
L144.405 85.8276
L145.102 85.8276
L145.102 85.3812
L145.8 85.3812
L145.8 81.5868
L146.498 81.5868
L146.498 84.8232
L147.195 84.8232
L147.195 87.39
L147.893 87.39
L147.893 84.1536
L148.59 84.1536
L148.59 80.694
L149.287 80.694
L149.287 86.7204
L149.985 86.7204
L149.985 80.694
L150.683 80.694
L150.683 85.716
L151.38 85.716
L151.38 84.4884
L152.077 84.4884
L152.077 80.694
L152.775 80.694
L152.775 84.6
L153.472 84.6
L153.472 78.462
L154.17 78.462
L154.17 83.1492
L154.868 83.1492
L154.868 85.158
L155.565 85.158
L155.565 82.1448
L156.262 82.1448
L156.262 80.136
L156.96 80.136
L156.96 82.926
L157.657 82.926
L157.657 81.6984
L158.355 81.6984
L158.355 77.904
L159.053 77.904
L159.053 81.4752
L159.75 81.4752
L159.75 81.9216
L160.447 81.9216
L160.447 80.694
L161.145 80.694
L161.145 84.3768
L161.843 84.3768
L161.843 78.0156
L162.54 78.0156
L162.54 81.0288
L163.238 81.0288
L163.238 85.6044
L163.935 85.6044
L163.935 84.2652
L164.632 84.2652
L164.632 84.8232
L165.33 84.8232
L165.33 80.5824
L166.028 80.5824
L166.028 79.6896
L166.725 79.6896
L166.725 79.1316
L167.423 79.1316
L167.423 82.5912
L168.12 82.5912
L168.12 80.4708
L168.817 80.4708
L168.817 85.6044
L169.515 85.6044
L169.515 81.81
L170.213 81.81
L170.213 80.3592
L170.91 80.3592
L170.91 82.5912
L171.608 82.5912
L171.608 75.8952
L172.305 75.8952
L172.305 81.5868
L173.002 81.5868
L173.002 84.1536
L173.7 84.1536
L173.7 83.8188
L174.398 83.8188
L174.398 82.7028
L175.095 82.7028
L175.095 77.904
L175.793 77.904
L175.793 82.4796
L176.49 82.4796
L176.49 82.0332
L177.188 82.0332
L177.188 82.368
L177.885 82.368
L177.885 82.1448
L178.583 82.1448
L178.583 80.694
L179.28 80.694
L179.28 77.346
L179.978 77.346
L179.978 79.578
L180.675 79.578
L180.675 85.4928
L181.373 85.4928
L181.373 78.6852
L182.07 78.6852
L182.07 80.2476
L182.767 80.2476
L182.767 79.4664
L183.465 79.4664
L183.465 79.1316
L184.163 79.1316
L184.163 81.4752
L184.86 81.4752
L184.86 80.8056
L185.558 80.8056
L185.558 79.4664
L186.255 79.4664
L186.255 82.0332
L186.952 82.0332
L186.952 80.136
L187.65 80.136
L187.65 82.2564
L188.348 82.2564
L188.348 81.252
L189.045 81.252
L189.045 82.4796
L189.743 82.4796
L189.743 82.5912
L190.44 82.5912
L190.44 80.2476
L191.137 80.2476
L191.137 83.5956
L191.835 83.5956
L191.835 81.1404
L192.532 81.1404
L192.532 78.2388
L193.23 78.2388
L193.23 78.0156
L193.928 78.0156
L193.928 79.2432
L194.625 79.2432
L194.625 81.1404
L195.322 81.1404
L195.322 76.0068
L196.02 76.0068
L196.02 77.1228
L196.718 77.1228
L196.718 77.7924
L197.415 77.7924
L197.415 78.1272
L198.113 78.1272
L198.113 74.1096
L198.81 74.1096
L198.81 76.23
L199.507 76.23
L199.507 83.3724
L200.205 83.3724
L200.205 79.4664
L200.903 79.4664
L200.903 74.8908
L201.6 74.8908
L201.6 80.4708
L202.298 80.4708
L202.298 80.694
L202.995 80.694
L202.995 90.2916
L203.692 90.2916
L203.692 95.5368
L204.39 95.5368
L204.39 88.9524
L205.088 88.9524
L205.088 80.136
L205.785 80.136
L205.785 81.1404
L206.483 81.1404
L206.483 86.0508
L207.18 86.0508
L207.18 82.0332
L207.877 82.0332
L207.877 80.136
L208.575 80.136
L208.575 81.3636
L209.273 81.3636
L209.273 78.5736
L209.97 78.5736
L209.97 85.9392
L210.668 85.9392
L210.668 81.81
L211.365 81.81
L211.365 82.5912
L212.062 82.5912
L212.062 85.158
L212.76 85.158
L212.76 80.9172
L213.458 80.9172
L213.458 76.788
L214.155 76.788
L214.155 81.3636
L214.853 81.3636
L214.853 80.8056
L215.55 80.8056
L215.55 87.0552
L216.248 87.0552
L216.248 82.1448
L216.945 82.1448
L216.945 78.9084
L217.643 78.9084
L217.643 82.4796
L218.34 82.4796
L218.34 89.9568
L219.037 89.9568
L219.037 89.1756
L219.735 89.1756
L219.735 82.1448
L220.433 82.1448
L220.433 83.1492
L221.13 83.1492
L221.13 85.9392
L221.828 85.9392
L221.828 82.7028
L222.525 82.7028
L222.525 83.5956
L223.222 83.5956
L223.222 83.0376
L224.618 83.0376
L224.618 81.252
L225.315 81.252
L225.315 80.5824
L226.013 80.5824
L226.013 86.274
L226.71 86.274
L226.71 84.4884
L227.407 84.4884
L227.407 86.0508
L228.105 86.0508
L228.105 83.8188
L228.803 83.8188
L228.803 87.8364
L229.5 87.8364
L229.5 87.39
L230.198 87.39
L230.198 87.2784
L230.895 87.2784
L230.895 88.8408
L231.593 88.8408
L231.593 98.7732
L232.29 98.7732
L232.29 92.7468
L232.988 92.7468
L232.988 97.7688
L233.685 97.7688
L233.685 98.2152
L234.382 98.2152
L234.382 96.7644
L235.08 96.7644
L235.08 92.412
L235.778 92.412
L235.778 94.644
L236.475 94.644
L236.475 99.108
L237.173 99.108
L237.173 91.5192
L237.87 91.5192
L237.87 97.6572
L238.567 97.6572
L238.567 99.2196
L239.265 99.2196
L239.265 101.786
L239.963 101.786
L239.963 110.938
L240.66 110.938
L240.66 109.487
L241.358 109.487
L241.358 106.808
L242.055 106.808
L242.055 103.572
L242.752 103.572
L242.752 104.465
L243.45 104.465
L243.45 103.907
L244.148 103.907
L244.148 112.277
L244.845 112.277
L244.845 101.452
L245.543 101.452
L245.543 106.474
L246.24 106.474
L246.24 111.83
L246.938 111.83
L246.938 117.857
L247.635 117.857
L247.635 118.415
L248.333 118.415
L248.333 108.371
L249.03 108.371
L249.03 104.353
L249.728 104.353
L249.728 103.572
L250.425 103.572
L250.425 129.128
L251.123 129.128
L251.123 142.855
L252.518 142.855
L252.518 137.164
L253.215 137.164
L253.215 149.774
L253.912 149.774
L253.912 152.006
L254.61 152.006
L254.61 144.976
L255.308 144.976
L255.308 139.842
L256.005 139.842
L256.005 154.015
L256.702 154.015
L256.702 155.801
L257.4 155.801
L257.4 147.431
L258.097 147.431
L258.097 144.752
L258.795 144.752
L258.795 148.882
L259.493 148.882
L259.493 155.689
L260.19 155.689
L260.19 151.225
L260.888 151.225
L260.888 152.23
L261.585 152.23
L261.585 146.426
L262.283 146.426
L262.283 149.551
L262.98 149.551
L262.98 159.037
L263.678 159.037
L263.678 152.788
L264.375 152.788
L264.375 165.064
L265.072 165.064
L265.072 149.998
L265.77 149.998
L265.77 142.409
L266.467 142.409
L266.467 135.155
L267.165 135.155
L267.165 129.575
L267.863 129.575
L267.863 126.562
L268.56 126.562
L268.56 133.481
L269.258 133.481
L269.258 139.061
L269.955 139.061
L269.955 141.181
L270.653 141.181
L270.653 152.341
L271.35 152.341
L271.35 140.958
L272.048 140.958
L272.048 142.632
L272.745 142.632
L272.745 130.021
L273.442 130.021
L273.442 131.36
L274.14 131.36
L274.14 124.441
L274.837 124.441
L274.837 122.99
L275.535 122.99
L275.535 124.888
L276.233 124.888
L276.233 118.192
L276.93 118.192
L276.93 123.883
L277.627 123.883
L277.627 132.03
L278.325 132.03
L278.325 137.833
L279.023 137.833
L279.023 126.338
L279.72 126.338
L279.72 120.87
L280.418 120.87
L280.418 130.133
L281.115 130.133
L281.115 122.321
L281.812 122.321
L281.812 118.973
L282.51 118.973
L282.51 122.432
L283.207 122.432
L283.207 134.374
L283.905 134.374
L283.905 141.628
L284.603 141.628
L284.603 137.164
L285.3 137.164
L285.3 120.87
L285.998 120.87
L285.998 119.642
L286.695 119.642
L286.695 116.852
L287.393 116.852
L287.393 113.504
L288.09 113.504
L288.09 109.264
L288.788 109.264
L288.788 108.817
L289.485 108.817
L289.485 106.362
L290.183 106.362
L290.183 110.156
L290.88 110.156
L290.88 98.6616
L291.577 98.6616
L291.577 98.55
L292.275 98.55
L292.275 100.224
L292.972 100.224
L292.972 112.165
L293.67 112.165
L293.67 141.07
L294.368 141.07
L294.368 159.93
L295.065 159.93
L295.065 146.873
L295.763 146.873
L295.763 158.256
L296.46 158.256
L296.46 153.011
L297.158 153.011
L297.158 157.81
L297.855 157.81
L297.855 166.18
L298.553 166.18
L298.553 163.055
L299.25 163.055
L299.25 163.39
L299.947 163.39
L299.947 162.832
L300.645 162.832
L300.645 165.287
L301.342 165.287
L301.342 168.858
L302.04 168.858
L302.04 149.105
L302.738 149.105
L302.738 166.961
L303.435 166.961
L303.435 162.72
L304.133 162.72
L304.133 168.858
L304.83 168.858
L304.83 179.237
L305.528 179.237
L305.528 171.202
L306.225 171.202
L306.225 162.05
L306.923 162.05
L306.923 180.911
L307.62 180.911
L307.62 177.116
L308.317 177.116
L308.317 156.136
L309.015 156.136
L309.015 161.827
L309.712 161.827
L309.712 159.26
L310.41 159.26
L310.41 161.381
L311.108 161.381
L311.108 157.475
L311.805 157.475
L311.805 180.13
L312.502 180.13
L312.502 164.729
L313.2 164.729
L313.2 167.296
L313.898 167.296
L313.898 156.582
L314.595 156.582
L314.595 162.832
L315.293 162.832
L315.293 158.368
L315.99 158.368
L315.99 159.149
L316.688 159.149
L316.688 149.328
L317.385 149.328
L317.385 151.56
L318.082 151.56
L318.082 160.711
L318.78 160.711
L318.78 155.578
L319.478 155.578
L319.478 153.457
L320.175 153.457
L320.175 145.31
L320.873 145.31
L320.873 143.86
L321.57 143.86
L321.57 161.604
L322.268 161.604
L322.268 154.685
L322.965 154.685
L322.965 145.087
L324.36 145.087
L324.36 145.422
L325.058 145.422
L325.058 151.448
L325.755 151.448
L325.755 148.882
L326.452 148.882
L326.452 151.783
L327.15 151.783
L327.15 162.943
L327.847 162.943
L327.847 153.122
L328.545 153.122
L328.545 143.413
L329.243 143.413
L329.243 142.409
L329.94 142.409
L329.94 156.47
L330.638 156.47
L330.638 147.766
L331.335 147.766
L331.335 153.234
L332.033 153.234
L332.033 161.381
L332.73 161.381
L332.73 164.506
L333.428 164.506
L333.428 169.416
L334.125 169.416
L334.125 160.488
L334.822 160.488
L334.822 168.635
L335.52 168.635
L335.52 160.823
L336.217 160.823
L336.217 155.466
L336.915 155.466
L336.915 163.501
L337.613 163.501
L337.613 167.965
L338.31 167.965
L338.31 169.751
L339.008 169.751
L339.008 166.626
L339.705 166.626
L339.705 165.51
L340.403 165.51
L340.403 159.26
L341.1 159.26
L341.1 148.547
L341.798 148.547
L341.798 158.926
L342.495 158.926
L342.495 150.779
L343.192 150.779
L343.192 156.582
L343.89 156.582
L343.89 163.724
L344.587 163.724
L344.587 154.685
L345.285 154.685
L345.285 152.006
L345.983 152.006
L345.983 161.492
L346.68 161.492
L346.68 155.131
L347.377 155.131
L347.377 164.84
L348.075 164.84
L348.075 159.484
L348.773 159.484
L348.773 166.514
L349.47 166.514
L349.47 168.077
L350.168 168.077
L350.168 166.18
L350.865 166.18
L350.865 155.689
L351.562 155.689
L351.562 164.729
L352.26 164.729
L352.26 171.871
L352.958 171.871
L352.958 154.462
L353.655 154.462
L353.655 162.385
L354.353 162.385
L354.353 157.363
L355.05 157.363
L355.05 153.011
L355.748 153.011
L355.748 152.118
L356.445 152.118
L356.445 155.578
L357.142 155.578
L357.142 171.871
L357.84 171.871
L357.84 150.221
L358.538 150.221
L358.538 151.337
L359.235 151.337
L359.235 169.416
L359.933 169.416
L359.933 160.153
L360.63 160.153
L360.63 169.081
L361.327 169.081
L361.327 164.729
L362.025 164.729
L362.025 165.175
L362.723 165.175
L362.723 159.707
L363.42 159.707
L363.42 165.956
L364.118 165.956
L364.118 162.832
L364.815 162.832
L364.815 172.764
L365.512 172.764
L365.512 176.112
L366.21 176.112
L366.21 177.674
L366.908 177.674
L366.908 166.961
L367.605 166.961
L367.605 171.202
L368.303 171.202
L368.303 183.589
L369 183.589
L369 163.055
L369.697 163.055
L369.697 151.672
L370.395 151.672
L370.395 160.376
L371.093 160.376
L371.093 165.845
L371.79 165.845
L371.79 163.948
L372.488 163.948
L372.488 170.532
L373.185 170.532
L373.185 168.188
L373.882 168.188
L373.882 171.09
L374.58 171.09
L374.58 188.165
L375.278 188.165
L375.278 169.528
L375.975 169.528
L375.975 175.554
L376.673 175.554
L376.673 163.39
L377.37 163.39
L377.37 173.434
L378.067 173.434
L378.067 177.116
L378.765 177.116
L378.765 164.282
L379.463 164.282
L379.463 167.296
L380.16 167.296
L380.16 171.313
L380.858 171.313
L380.858 163.501
L381.555 163.501
L381.555 174.438
L382.252 174.438
L382.252 164.282
L382.95 164.282
L382.95 159.484
L383.648 159.484
L383.648 169.974
L384.345 169.974
L384.345 173.322
L385.043 173.322
L385.043 182.25
L385.74 182.25
L385.74 172.876
L386.438 172.876
L386.438 177.005
L387.135 177.005
L387.135 166.738
L387.833 166.738
L387.833 161.046
L388.53 161.046
L388.53 171.983
L389.228 171.983
L389.228 161.269
L389.925 161.269
L389.925 163.055
L390.623 163.055
L390.623 158.144
L391.32 158.144
L391.32 157.81
L392.018 157.81
L392.018 164.282
L392.715 164.282
L392.715 166.514
L393.413 166.514
L393.413 172.764
L394.11 172.764
L394.11 167.184
L394.808 167.184
L394.808 166.18
L395.505 166.18
L395.505 173.992
L396.202 173.992
L396.202 165.398
L396.9 165.398
L396.9 166.961
L397.598 166.961
L397.598 179.237
L398.295 179.237
L398.295 154.015
L398.993 154.015
L398.993 153.792
L399.69 153.792
L399.69 168.188
L400.387 168.188
L400.387 161.269
L401.085 161.269
L401.085 153.569
L401.783 153.569
L401.783 165.733
L402.48 165.733
L402.48 163.948
L403.178 163.948
L403.178 171.202
L403.875 171.202
L403.875 167.965
L404.572 167.965
L404.572 160.042
L405.27 160.042
L405.27 152.341
L405.968 152.341
L405.968 137.722
L406.665 137.722
L406.665 161.827
L407.363 161.827
L407.363 179.014
L408.06 179.014
L408.06 162.72
L408.757 162.72
L408.757 181.469
L409.455 181.469
L409.455 180.688
L410.153 180.688
L410.153 182.473
L410.85 182.473
L410.85 181.357
L411.548 181.357
L411.548 185.821
L412.245 185.821
L412.245 175.219
L412.942 175.219
L412.942 181.915
L413.64 181.915
L413.64 187.16
L414.338 187.16
L414.338 179.795
L415.035 179.795
L415.035 180.241
L415.733 180.241
L415.733 169.974
L416.43 169.974
L416.43 175.442
L417.127 175.442
L417.127 182.138
L417.825 182.138
L417.825 180.018
L418.523 180.018
L418.523 183.031
L419.22 183.031
L419.22 188.611
L419.918 188.611
L419.918 182.808
L420.615 182.808
L420.615 169.639
L421.312 169.639
L421.312 179.906
L422.01 179.906
L422.01 178.456
L422.708 178.456
L422.708 179.46
L423.405 179.46
L423.405 176.112
L424.103 176.112
L424.103 170.532
L424.8 170.532
L424.8 180.576
L425.498 180.576
L425.498 187.607
L426.195 187.607
L426.195 174.326
L426.893 174.326
L426.893 183.254
L427.59 183.254
L427.59 185.71
L428.288 185.71
L428.288 183.812
L428.985 183.812
L428.985 190.508
L429.683 190.508
L429.683 170.197
L430.38 170.197
L430.38 170.978
L431.077 170.978
L431.077 178.679
L431.775 178.679
L431.775 187.384
L432.473 187.384
L432.473 178.232
L433.17 178.232
L433.17 171.536
L433.868 171.536
L433.868 185.04
L434.565 185.04
L434.565 178.902
L435.262 178.902
L435.262 173.099
L435.96 173.099
L435.96 186.491
L436.658 186.491
L436.658 194.638
L437.355 194.638
L437.355 166.738
L438.053 166.738
L438.053 178.232
L438.75 178.232
L438.75 178.79
L439.447 178.79
L439.447 191.29
L440.145 191.29
L440.145 193.522
L440.843 193.522
L440.843 187.049
L441.54 187.049
L441.54 182.027
L442.238 182.027
L442.238 193.522
L442.935 193.522
L442.935 189.169
L443.632 189.169
L443.632 178.902
L445.028 178.902
L445.028 193.522
L445.725 193.522
L445.725 167.854
L446.423 167.854
L446.423 176.558
L447.12 176.558
L447.12 165.733
L447.817 165.733
L447.817 171.202
L448.515 171.202
L448.515 175.889
L449.213 175.889
L449.213 171.536
L449.91 171.536
L449.91 170.197
L450.608 170.197
L450.608 167.63
L451.305 167.63
L451.305 173.21
L452.002 173.21
L452.002 182.696
L452.7 182.696
L452.7 203.119
L453.398 203.119
L453.398 189.504
L454.095 189.504
L454.095 179.906
L454.793 179.906
L454.793 175.777
L455.49 175.777
L455.49 177.898
L456.188 177.898
L456.188 186.826
L456.885 186.826
L456.885 185.821
L457.583 185.821
L457.583 176.447
L458.28 176.447
L458.28 184.036
L458.978 184.036
L458.978 179.125
L459.675 179.125
L459.675 168.746
L460.373 168.746
L460.373 184.705
L461.768 184.705
L461.768 166.738
L462.465 166.738
L462.465 169.751
L463.163 169.751
L463.163 178.902
L463.86 178.902
L463.86 177.786
L464.558 177.786
L464.558 174.773
L465.255 174.773
L465.255 185.71
L465.953 185.71
L465.953 189.504
L466.65 189.504
L466.65 191.513
L467.348 191.513
L467.348 180.688
L468.045 180.688
L468.045 174.215
L468.743 174.215
L468.743 156.247
L469.44 156.247
L469.44 148.435
L470.137 148.435
L470.137 136.159
L470.835 136.159
L470.835 133.704
L471.533 133.704
L471.533 122.209
L472.23 122.209
L472.23 176.112
L472.928 176.112
L472.928 181.915
L473.625 181.915
L473.625 183.031
L474.322 183.031
L474.322 183.366
L475.02 183.366
L475.02 194.414
L475.718 194.414
L475.718 187.272
L476.415 187.272
L476.415 191.513
L477.113 191.513
L477.113 185.598
L477.81 185.598
L477.81 186.714
L478.507 186.714
L478.507 190.397
L479.205 190.397
L479.205 182.25
L479.903 182.25
L479.903 192.852
L480.6 192.852
L480.6 180.464
L481.298 180.464
L481.298 182.585
L481.995 182.585
L481.995 188.165
L482.692 188.165
L482.692 176.112
L483.39 176.112
L483.39 176.447
L484.088 176.447
L484.088 146.873
L484.785 146.873
L484.785 144.083
L485.483 144.083
L485.483 145.422
L486.18 145.422
L486.18 144.418
L486.877 144.418
L486.877 129.463
L487.575 129.463
L487.575 142.967
L488.273 142.967
L488.273 168.3
L488.97 168.3
L488.97 180.576
L489.668 180.576
L489.668 189.169
L490.365 189.169
L490.365 185.933
L491.062 185.933
L491.062 191.066
L491.76 191.066
L491.76 181.804
L492.458 181.804
L492.458 186.491
L493.155 186.491
L493.155 188.611
L493.853 188.611
L493.853 181.134
L494.55 181.134
L494.55 179.572
L495.248 179.572
L495.248 186.602
L495.945 186.602
L495.945 196.981
L496.643 196.981
L496.643 188.946
L497.34 188.946
L497.34 205.351
L498.038 205.351
L498.038 191.401
L498.735 191.401
L498.735 198.655
L499.433 198.655
L499.433 189.392
L500.13 189.392
L500.13 186.714
L500.828 186.714
L500.828 188.5
L501.525 188.5
L501.525 190.732
L502.223 190.732
L502.223 185.71
L502.92 185.71
L502.92 184.817
L503.618 184.817
L503.618 194.303
L504.315 194.303
L504.315 190.285
L505.013 190.285
L505.013 197.428
L505.71 197.428
L505.71 187.495
L506.408 187.495
L506.408 189.169
L507.105 189.169
L507.105 197.204
L507.803 197.204
L507.803 182.138
L508.5 182.138
L508.5 185.486
L509.197 185.486
L509.197 194.861
L509.895 194.861
L509.895 182.362
L510.593 182.362
L510.593 177.786
L511.29 177.786
L511.29 183.143
L511.988 183.143
L511.988 165.287
L512.685 165.287
L512.685 166.849
L513.382 166.849
L513.382 173.88
L514.08 173.88
L514.08 183.366
L514.778 183.366
L514.778 175.219
L515.475 175.219
L515.475 181.134
L516.173 181.134
L516.173 187.718
L516.87 187.718
L516.87 187.384
L517.567 187.384
L517.567 181.246
L518.265 181.246
L518.265 183.812
L518.963 183.812
L518.963 180.353
L519.66 180.353
L519.66 177.005
L520.358 177.005
L520.358 188.276
L521.055 188.276
L521.055 186.491
L521.753 186.491
L521.753 176.335
L522.45 176.335
L522.45 182.138
L523.148 182.138
L523.148 187.384
L523.845 187.384
L523.845 179.014
L524.543 179.014
L524.543 174.773
L525.24 174.773
L525.24 189.504
L525.938 189.504
L525.938 181.58
L526.635 181.58
L526.635 185.263
L527.332 185.263
L527.332 184.482
L528.03 184.482
L528.03 174.884
L528.727 174.884
L528.727 181.469
L529.425 181.469
L529.425 178.232
L530.122 178.232
L530.122 185.821
L530.82 185.821
L530.82 181.134
L531.518 181.134
L531.518 184.594
L532.215 184.594
L532.215 178.344
L532.913 178.344
L532.913 180.241
L533.61 180.241
L533.61 157.698
L534.308 157.698
L534.308 159.372
L535.005 159.372
L535.005 147.208
L535.703 147.208
L535.703 143.748
L536.4 143.748
L536.4 145.199
L537.098 145.199
L537.098 144.864
L537.795 144.864
L537.795 139.73
L538.493 139.73
L538.493 139.061
L539.19 139.061
L539.19 128.347
L539.888 128.347
L539.888 165.845
L540.585 165.845
L540.585 184.036
L541.283 184.036
L541.283 182.92
L541.98 182.92
L541.98 187.049
L542.678 187.049
L542.678 187.942
L543.375 187.942
L543.375 182.473
L544.072 182.473
L544.072 186.937
L544.77 186.937
L544.77 192.74
L545.467 192.74
L545.467 197.762
L546.165 197.762
L546.165 183.254
L546.862 183.254
L546.862 173.545
L547.56 173.545
L547.56 179.237
L548.257 179.237
L548.257 181.469
L548.955 181.469
L548.955 182.92
L549.653 182.92
L549.653 176.782
L550.35 176.782
L550.35 176.224
L551.048 176.224
L551.048 180.13
L551.745 180.13
L551.745 187.16
L552.442 187.16
L552.442 175.442
L553.14 175.442
L553.14 152.676
L553.838 152.676
L553.838 144.641
L554.535 144.641
L554.535 139.507
L555.233 139.507
L555.233 136.606
L555.93 136.606
L555.93 138.391
L556.628 138.391
L556.628 137.945
L557.325 137.945
L557.325 129.575
L558.023 129.575
L558.023 152.006
L558.72 152.006
L558.72 161.716
L559.418 161.716
L559.418 170.532
L560.115 170.532
L560.115 170.867
L560.812 170.867
L560.812 176.782
L561.51 176.782
L561.51 177.451
L562.207 177.451
L562.207 168.188
L562.905 168.188
L562.905 172.987
L563.602 172.987
L563.602 170.755
L564.3 170.755
L564.3 172.206
L564.997 172.206
L564.997 169.304
L565.695 169.304
L565.695 178.121
L566.393 178.121
L566.393 174.884
L567.09 174.884
L567.09 171.76
L567.788 171.76
L567.788 169.528
L568.485 169.528
L568.485 173.545
L569.183 173.545
L569.183 178.121
L569.88 178.121
L569.88 173.657
L570.578 173.657
L570.578 161.939
L571.275 161.939
L571.275 164.952
L571.973 164.952
L571.973 140.958
L572.67 140.958
L572.67 145.98
L573.368 145.98
L573.368 144.864
L574.065 144.864
L574.065 148.993
L574.763 148.993
L574.763 153.457
L575.46 153.457
L575.46 151.448
L576.158 151.448
L576.158 143.748
L576.855 143.748
L576.855 133.146
L577.553 133.146
L577.553 142.297
L578.25 142.297
L578.25 136.717
L578.947 136.717
L578.947 138.168
L579.645 138.168
L579.645 133.258
L580.342 133.258
L580.342 134.932
L581.04 134.932
L581.04 131.918
L581.737 131.918
L581.737 126.785
L582.435 126.785
L582.435 125.111
L583.132 125.111
L583.132 138.838
L583.83 138.838
L583.83 169.639
L584.528 169.639
L584.528 170.978
L585.225 170.978
L585.225 171.983
L585.923 171.983
L585.923 169.416
L586.62 169.416
L586.62 162.162
L587.317 162.162
L587.317 169.193
L588.015 169.193
L588.015 178.679
L588.713 178.679
L588.713 190.843
L590.108 190.843
L590.108 169.304
L590.805 169.304
L590.805 175.331
L591.503 175.331
L591.503 177.451
L592.2 177.451
L592.2 173.099
L592.898 173.099
L592.898 171.76
L593.595 171.76
L593.595 167.519
L594.293 167.519
L594.293 171.09
L594.99 171.09
L594.99 177.451
L595.688 177.451
L595.688 172.541
L596.385 172.541
L596.385 162.72
L597.082 162.72
L597.082 174.55
L597.78 174.55
L597.78 164.059
L598.477 164.059
L598.477 159.93
L599.175 159.93
L599.175 176.447
L599.872 176.447
L599.872 165.064
L600.57 165.064
L600.57 149.551
L601.268 149.551
L601.268 152.118
L601.965 152.118
L601.965 152.564
L602.663 152.564
L602.663 154.462
L603.36 154.462
L603.36 144.864
L604.058 144.864
L604.058 157.586
L604.755 157.586
L604.755 155.02
L605.452 155.02
L605.452 157.363
L606.15 157.363
L606.15 151.672
L606.847 151.672
L606.847 155.243
L607.545 155.243
L607.545 151.114
L608.243 151.114
L608.243 142.744
L608.94 142.744
L608.94 140.623
L609.638 140.623
L609.638 135.824
L610.335 135.824
L610.335 139.619
L611.033 139.619
L611.033 132.365
L611.73 132.365
L611.73 143.636
L612.428 143.636
L612.428 142.744
L613.125 142.744
L613.125 126.673
L613.822 126.673
L613.822 132.365
L614.52 132.365
L614.52 126.338
L615.217 126.338
L615.217 130.914
L615.915 130.914
L615.915 128.124
L616.613 128.124
L616.613 126.004
L617.31 126.004
L617.31 129.686
L618.008 129.686
L618.008 130.579
L618.705 130.579
L618.705 129.575
L619.403 129.575
L619.403 133.816
L620.1 133.816
L620.1 129.798
L620.798 129.798
L620.798 125.222
L621.495 125.222
L621.495 123.66
L622.192 123.66
L622.192 128.905
L622.89 128.905
L622.89 120.312
L623.587 120.312
L623.587 119.531
L624.285 119.531
L624.285 129.128
L624.983 129.128
L624.983 160.042
L625.68 160.042
L625.68 166.068
L626.378 166.068
L626.378 171.425
L627.075 171.425
L627.075 165.622
L627.773 165.622
L627.773 164.394
L628.47 164.394
L628.47 171.202
L629.168 171.202
L629.168 171.76
L629.865 171.76
L629.865 170.644
L630.562 170.644
L630.562 171.313
L631.26 171.313
L631.26 181.804
L631.957 181.804
L631.957 176.224
L632.655 176.224
L632.655 176
L633.353 176
L633.353 174.884
L634.05 174.884
L634.05 169.751
L634.748 169.751
L634.748 168.3
L635.445 168.3
L635.445 163.948
L636.143 163.948
L636.143 184.036
L636.84 184.036
L636.84 179.906
L637.538 179.906
L637.538 186.826
L638.235 186.826
L638.235 174.438
L638.933 174.438
L638.933 176.893
L639.63 176.893
L639.63 180.799
L640.327 180.799
L640.327 177.786
L641.025 177.786
L641.025 174.215
L641.722 174.215
L641.722 180.241
L642.42 180.241
L642.42 170.086
L643.118 170.086
L643.118 179.348
L643.815 179.348
L643.815 181.357
L644.513 181.357
L644.513 162.832
L645.21 162.832
L645.21 183.701
L645.908 183.701
L645.908 170.309
L646.605 170.309
L646.605 173.434
L647.303 173.434
L647.303 176.558
L648 176.558
L648 176.447
L648.697 176.447
L648.697 176.447" style="fill:none;stroke:#348abd;stroke-linecap:square;stroke-width:2;"/>
   </g>
   <g id="line2d_44">
    <path clip-path="url(#p9f76a1e9e4)" d="
M90.9765 130.579
L91.9321 136.483
L93.0062 138.38
L94.1083 138.291
L95.2281 140.478
L96.4215 138.715
L97.6708 137.978
L98.9228 134.664
L100.189 141.003
L101.464 131.84
L102.772 139.072
L104.156 137.007
L105.543 136.349
L106.915 133.157
L108.276 134.039
L109.678 135.311
L111.16 136.896
L112.673 137.599
L114.222 137.655
L115.842 136.505
L117.508 138.045
L119.192 137.007
L120.904 137.019
L122.69 143.09
L124.521 137.063
L126.328 134.932
L128.074 133.414
L129.741 133.659
L131.435 136.304
L133.167 135.88
L134.939 139.842
L136.76 137.677
L138.525 134.608
L140.237 133.559
L141.938 133.559
L143.709 136.204
L145.561 134.195
L147.441 135.121
L149.301 135.043
L151.123 134.82
L152.99 136.159
L154.916 136.952
L156.82 135.121
L158.718 136.014
L160.607 133.816
L162.513 135.411
L164.477 139.541
L166.431 136.985
L168.349 135.144
L170.249 132.7
L172.2 137.621
L174.162 136.394
L176.107 137.677
L178.102 137.655
L180.108 140.612
L182.143 138.201
L184.195 136.204
L186.214 139.239
L188.297 142.643
L190.431 139.172
L192.569 143.067
L194.635 135.155
L196.646 137.565
L198.701 138.246
L200.764 140.947
L202.885 145.165
L205.056 141.148
L207.204 141.616
L209.297 138.581
L211.368 139.217
L213.471 138.849
L215.553 136.26
L217.65 139.094
L219.74 133.782
L221.746 131.784
L223.757 134.407
L225.755 131.104
L227.693 130.691
L229.634 132.655
L231.602 131.505
L233.543 128.28
L235.492 133.146
L237.494 132.153
L239.469 127.466
L241.464 131.93
L243.561 132.521
L245.686 134.005
L247.798 131.483
L249.898 131.238
L251.98 131.249
L254.06 129.865
L256.181 132.599
L258.312 131.918
L260.509 138.425
L262.864 142.364
L265.351 148.435
L267.941 150.79
L270.64 153.948
L273.499 157.877
L276.424 157.252
L279.325 156.136
L282.128 152.419
L284.891 155.544
L287.737 157.095
L290.628 153.502
L293.439 148.96
L296.114 143.737
L298.754 145.913
L301.535 152.386
L304.482 153.971
L307.379 152.598
L310.291 155.12
L313.39 161.236
L316.56 160.778
L319.773 161.593
L323.159 166.704
L326.715 167.117
L330.345 171.938
L334.133 178.043
L338.147 178.132
L342.339 183.69
L346.743 184.917
L351.278 186.647
L355.861 187.194
L360.493 186.033
L365.125 187.785
L369.722 184.806
L374.402 189.247
L379.157 186.614
L383.757 186.602
L388.255 187.283
L392.813 187.618
L397.44 187.082
L402.056 186.279
L406.568 185.263
L411.152 188.957
L415.793 185.23
L420.459 188.154
L425.094 184.292
L429.606 184.449
L434.188 188.578
L438.864 188.377
L443.577 188.913
L448.332 190.062
L453.159 190.799
L457.952 190.241
L462.704 189.471
L472.209 190.174
L476.949 189.292
L481.526 183.924
L485.992 182.574
L490.606 189.203
L495.226 182.205
L499.723 185.52
L504.044 180.453
L508.19 181.837
L512.513 184.895
L517.081 187.797
L521.847 186.056
L526.53 183.288
L531.147 189.549
L535.774 186.948
L540.13 179.583
L544.421 182.507
L548.871 186.893
L553.395 183.411
L557.764 179.304
L562.168 183.254
L566.925 188.377
L571.606 183.489
L575.91 179.237
L580.139 177.641
L584.447 179.94
L593.334 182.708
L597.761 180.342
L602.209 181.357
L606.564 175.889
L610.696 173.556
L614.611 165.722
L618.538 173.021
L622.55 170.543
L626.545 171.793
L630.599 173.835
L634.926 181.625
L639.627 183.935
L644.346 180.386
L649.033 180.9
L649.033 180.9" style="fill:none;stroke:#7a68a6;stroke-linecap:square;stroke-width:2;"/>
   </g>
   <g id="line2d_45">
    <path clip-path="url(#p9f76a1e9e4)" d="
M90 182.808
L91.7995 182.808
L92.0786 188.276
L92.3715 182.696
L92.6505 180.353
L92.9434 189.169
L93.2643 195.196
L93.5991 190.174
L93.92 187.83
L94.2408 184.259
L94.8965 187.83
L95.5382 173.88
L95.859 180.464
L96.1938 181.58
L96.5426 183.366
L96.9052 190.062
L97.2959 192.182
L97.7004 193.633
L98.105 188.834
L98.4955 186.826
L98.8862 182.92
L99.2767 184.036
L99.6953 191.066
L100.128 193.187
L100.993 183.478
L101.397 183.924
L101.83 188.053
L102.29 188.053
L102.722 183.924
L103.169 184.482
L103.615 184.705
L104.076 188.276
L104.536 183.143
L104.982 181.022
L105.443 188.388
L105.931 187.16
L106.405 184.594
L106.893 187.16
L107.396 192.74
L107.926 193.856
L108.428 185.486
L108.916 180.576
L109.391 183.143
L109.893 183.701
L110.381 183.031
L111.413 189.504
L111.943 189.281
L112.487 191.736
L113.045 192.964
L113.603 188.723
L114.719 190.955
L115.277 191.178
L115.849 189.281
L116.407 186.379
L116.937 181.804
L117.481 184.705
L118.026 185.821
L118.584 185.375
L119.142 186.379
L119.7 186.937
L120.285 189.169
L120.857 187.718
L121.429 182.027
L121.959 174.996
L122.517 189.392
L123.117 192.517
L123.731 187.718
L124.317 187.049
L124.889 180.799
L125.461 184.594
L126.061 191.959
L126.661 183.924
L127.246 182.92
L127.846 190.843
L128.502 196.088
L129.716 178.902
L130.929 191.848
L131.571 192.294
L132.213 187.718
L132.827 184.482
L133.44 186.379
L134.054 183.366
L134.654 181.804
L135.268 185.71
L135.882 186.937
L136.509 184.817
L137.137 183.701
L137.737 181.357
L138.351 181.692
L138.978 188.946
L139.634 188.834
L140.262 180.799
L140.862 178.456
L141.462 178.902
L142.703 187.049
L143.345 185.933
L143.987 182.808
L144.614 184.37
L145.27 187.272
L145.926 187.718
L146.595 187.83
L147.934 190.174
L148.618 189.504
L149.287 186.379
L149.915 179.125
L150.529 175.219
L152.901 175.219
L153.5 176.893
L154.114 181.469
L155.425 188.723
L156.109 186.714
L156.765 181.134
L157.392 182.808
L158.076 190.508
L158.76 187.272
L159.429 185.263
L160.099 187.272
L160.754 181.915
L161.396 181.58
L162.052 185.375
L162.707 184.259
L163.363 180.911
L164.005 182.138
L164.646 182.25
L165.288 179.46
L165.916 179.46
L166.558 181.469
L167.199 182.696
L167.855 182.25
L168.497 182.585
L170.478 184.482
L171.133 184.259
L172.431 179.795
L173.756 187.718
L175.081 180.688
L175.723 183.924
L176.392 185.263
L177.062 182.362
L177.704 181.022
L178.359 186.491
L179.071 193.41
L179.782 189.95
L180.48 184.594
L181.149 186.602
L181.833 186.714
L182.502 179.795
L183.144 179.683
L183.8 184.482
L185.181 190.508
L185.892 189.504
L186.59 185.598
L187.273 185.598
L187.971 188.611
L188.682 189.504
L189.38 185.598
L190.049 181.134
L191.375 181.804
L192.044 182.92
L192.728 186.379
L193.411 184.705
L194.095 180.576
L194.751 180.799
L195.392 177.34
L196.048 180.576
L196.704 180.241
L197.373 180.576
L198.043 185.04
L198.726 183.924
L199.424 186.044
L200.121 186.156
L200.819 184.482
L201.516 183.366
L202.2 183.924
L202.869 177.563
L203.483 165.622
L204.753 185.152
L205.45 184.482
L206.134 182.808
L206.817 180.464
L207.487 180.688
L208.17 182.362
L208.854 183.143
L210.235 183.478
L210.919 182.25
L211.588 176.112
L212.244 177.451
L212.913 183.701
L213.611 181.692
L214.294 181.692
L214.992 183.924
L215.676 181.134
L216.359 180.576
L217.043 181.804
L217.726 181.134
L219.065 175.777
L219.707 177.228
L221.074 182.808
L221.758 181.915
L222.441 178.232
L223.111 178.121
L223.767 174.103
L224.408 173.434
L225.064 179.906
L225.761 182.138
L226.459 182.362
L227.142 181.58
L227.84 178.902
L228.51 178.902
L229.193 180.688
L229.877 178.121
L230.546 179.348
L231.23 180.018
L231.899 173.88
L232.541 172.429
L233.197 177.005
L233.894 184.482
L234.606 182.138
L235.289 178.456
L235.987 180.576
L237.368 180.576
L238.065 181.246
L238.777 181.58
L239.474 179.683
L240.158 176.67
L241.511 178.902
L242.195 175.666
L242.85 175.331
L243.52 176
L244.189 174.215
L244.845 173.657
L245.487 169.193
L246.114 168.635
L246.756 175.219
L247.44 177.228
L248.109 175.777
L249.504 182.138
L250.216 182.585
L250.941 184.482
L252.406 184.705
L253.145 186.156
L253.899 188.611
L254.68 189.727
L255.461 192.964
L256.256 190.955
L257.023 188.5
L257.805 192.852
L258.614 194.526
L259.409 192.294
L260.218 193.187
L261.041 199.771
L261.906 201.78
L262.771 200.218
L263.622 197.874
L264.473 198.878
L265.338 202.115
L266.216 202.115
L268.769 195.307
L269.592 196.423
L270.429 197.093
L272.117 199.436
L272.968 198.767
L273.819 198.544
L275.479 194.861
L276.302 194.861
L277.125 198.209
L277.99 202.338
L278.869 200.552
L279.72 197.539
L280.543 195.53
L281.366 193.075
L282.147 188.276
L282.901 187.272
L283.668 188.611
L284.435 187.384
L286.765 192.573
L290.071 199.492
L290.936 201.222
L291.801 198.097
L292.638 199.325
L293.517 202.896
L294.381 200.441
L295.246 200.106
L296.111 201.557
L297.004 204.124
L297.911 205.24
L298.804 203.677
L299.696 205.128
L300.631 209.592
L301.58 210.15
L302.514 207.472
L303.435 206.244
L304.356 205.798
L305.276 208.588
L306.239 212.382
L307.202 211.601
L308.164 210.596
L309.127 211.489
L310.089 209.592
L311.038 210.038
L312.014 215.73
L313.019 214.391
L313.995 212.828
L314.986 215.06
L316.004 216.846
L317.036 219.524
L318.082 220.529
L319.143 220.529
L320.203 219.636
L321.249 219.859
L323.37 222.538
L324.472 224.77
L325.602 230.461
L326.787 231.689
L329.089 225.662
L331.307 224.658
L332.437 229.01
L333.595 230.238
L334.739 226.332
L335.869 227.002
L336.999 227.448
L338.129 227.336
L339.259 226.667
L340.389 226.89
L342.718 232.805
L343.904 229.68
L345.048 227.894
L346.192 226.89
L347.322 228.452
L348.493 232.024
L349.679 231.577
L350.879 233.586
L352.079 231.8
L353.237 225.886
L354.353 226.22
L355.496 229.457
L356.668 230.461
L358.984 227.448
L360.1 225.662
L361.23 226.778
L362.374 229.792
L363.56 231.8
L364.759 233.586
L365.959 232.358
L367.159 232.916
L368.344 228.787
L369.488 226.332
L370.618 227.783
L371.748 225.662
L374.036 229.68
L376.366 229.122
L377.523 229.234
L379.839 228.118
L380.983 228.564
L382.155 229.792
L383.313 229.68
L384.485 228.564
L385.628 228.452
L386.786 228.452
L389.116 229.68
L391.39 224.77
L392.52 226.778
L393.678 230.684
L394.863 231.354
L396.049 229.903
L397.221 230.126
L398.407 231.912
L399.634 234.702
L400.862 234.702
L402.075 232.247
L403.275 231.242
L408.102 233.251
L409.288 229.122
L410.459 228.787
L411.645 232.693
L412.873 234.702
L415.37 236.153
L416.597 233.028
L417.783 227.783
L420.169 233.698
L422.61 233.698
L425.037 231.242
L426.223 229.68
L427.395 228.676
L428.594 234.144
L429.864 238.943
L432.291 226.444
L434.565 226.332
L436.797 222.984
L439.085 230.684
L442.614 227.671
L443.772 229.122
L444.958 231.689
L446.157 230.796
L447.329 227.894
L448.473 223.542
L449.575 223.096
L450.677 224.993
L451.807 225.216
L452.937 226.444
L454.081 226.555
L455.211 224.435
L456.341 224.993
L457.471 227.113
L458.629 228.899
L459.815 230.461
L461 230.796
L462.2 230.796
L463.386 228.452
L464.544 227.225
L465.715 229.568
L466.915 234.59
L468.185 237.157
L469.468 237.157
L471.979 234.479
L473.207 231.242
L474.392 229.234
L475.592 232.247
L476.834 234.814
L478.075 233.921
L479.303 232.247
L481.702 229.792
L484.046 227.002
L486.459 236.041
L490.128 228.955
L493.532 221.868
L494.634 221.868
L498.024 227.292
L501.595 232.916
L502.836 233.028
L504.064 232.805
L505.305 234.479
L507.789 232.582
L509.002 230.238
L510.174 224.77
L511.304 223.988
L512.448 228.006
L513.634 229.457
L514.819 228.899
L519.493 225.886
L521.85 230.238
L524.264 230.908
L526.663 228.229
L527.849 229.01
L529.048 230.796
L530.262 231.912
L531.49 230.126
L532.675 226.555
L533.819 224.77
L534.949 222.314
L536.065 222.091
L537.181 222.426
L538.311 224.435
L539.455 225.662
L540.585 221.198
L541.701 224.323
L542.859 227.113
L544.017 223.765
L545.133 221.31
L546.235 221.868
L547.379 227.002
L548.55 227.002
L549.722 225.774
L550.894 227.783
L553.266 227.894
L555.595 224.323
L556.753 226.778
L557.939 227.448
L559.111 225.886
L560.268 224.658
L561.412 224.993
L562.584 226.22
L563.742 224.993
L564.872 220.64
L565.988 222.984
L567.118 222.203
L568.22 218.743
L569.322 221.087
L570.41 217.627
L571.484 217.181
L572.558 218.074
L573.633 216.176
L574.679 215.06
L575.711 211.266
L576.702 209.146
L577.692 210.708
L579.757 216.958
L581.891 215.842
L582.937 212.94
L583.956 211.936
L584.974 212.828
L586.006 214.056
L587.052 214.726
L588.085 213.052
L589.131 214.502
L590.177 215.172
L591.224 215.507
L592.298 218.52
L593.4 219.748
L595.66 223.988
L596.817 225.216
L598.003 228.452
L599.203 225.774
L600.361 221.533
L601.491 223.542
L602.635 221.422
L603.737 217.181
L605.941 221.198
L608.215 223.096
L609.359 223.096
L610.516 223.542
L611.674 225.104
L612.832 222.426
L613.934 216.846
L615.036 219.636
L616.166 222.984
L617.296 221.087
L619.528 219.078
L620.644 219.971
L621.774 221.533
L622.904 222.426
L624.062 223.542
L625.22 224.435
L626.391 224.993
L627.563 224.993
L629.893 221.98
L634.427 220.864
L635.543 218.52
L636.631 216.623
L637.719 216.623
L638.807 218.185
L639.909 218.743
L641.011 218.743
L642.127 217.962
L643.215 217.962
L644.303 216.511
L645.377 213.61
L646.452 218.743
L647.595 223.542
L648.753 223.207
L648.753 223.207" style="fill:none;stroke:#a60628;stroke-linecap:square;stroke-width:2;"/>
   </g>
   <g id="patch_3">
    <path d="
M90 28.8
L648 28.8" style="fill:none;stroke:#bcbcbc;"/>
   </g>
   <g id="patch_4">
    <path d="
M648 252
L648 28.8" style="fill:none;stroke:#bcbcbc;"/>
   </g>
   <g id="patch_5">
    <path d="
M90 252
L648 252" style="fill:none;stroke:#bcbcbc;"/>
   </g>
   <g id="patch_6">
    <path d="
M90 252
L90 28.8" style="fill:none;stroke:#bcbcbc;"/>
   </g>
   <g id="patch_7">
    <path d="
M253.811 60.14
Q245.986 69.7885 243.853 82.0713" style="fill:none;stroke:#000000;stroke-linecap:round;stroke-width:0.5;"/>
    <path d="
M246.508 78.4725
L243.853 82.0713
L242.567 77.7881" style="fill:none;stroke:#000000;stroke-linecap:round;stroke-width:0.5;"/>
   </g>
   <g id="text_16">
    <!-- Younger Dryas -->
    <defs>
     <path d="
M44.3906 43.6094
Q37.9844 45.7031 32.3281 45.7031
Q26.125 45.7031 22.5 43.625
Q18.8906 41.5469 18.8906 38.0938
Q18.8906 35.8906 20.5469 34.25
Q22.2188 32.625 27.2031 31.2031
L34.4688 29.1094
Q39.5 27.6875 42.6719 25.7031
Q45.8438 23.7344 47.4375 20.9219
Q49.0312 18.1094 49.0312 14.4062
Q49.0312 7.125 42.9219 2.90625
Q36.8125 -1.3125 27.3906 -1.3125
Q18.0156 -1.3125 11.9219 1.51562
L13.375 8.10938
Q19.7812 5.07812 27.0938 5.07812
Q33.4531 5.07812 37.4219 7.4375
Q41.4062 9.8125 41.4062 13.7188
Q41.4062 16.3594 39.4219 18.4375
Q37.4531 20.5156 30.125 22.75
Q24.2188 24.5625 21.4375 25.4688
Q18.6562 26.375 16.2656 28.125
Q13.875 29.8906 12.625 32.3281
Q11.375 34.7656 11.375 37.7969
Q11.375 44.3906 17.1406 48.2344
Q22.9062 52.0938 32.4219 52.0938
Q38.5781 52.0938 46.0938 50
z
" id="AndaleMono-73"/>
     <path d="
M50.4844 49.5156
L47.4062 42.1875
Q42.3906 44.3906 38.7188 44.3906
Q35.3594 44.3906 32.125 42.4531
Q28.9062 40.5312 26.1875 36.9375
Q23.4844 33.3438 23.4844 32.9062
L23.4844 0
L15.9219 0
L15.9219 50.875
L23.4844 50.875
L23.4844 40.5781
Q29.5938 52.0938 39.3125 52.0938
Q45.0625 52.0938 50.4844 49.5156" id="AndaleMono-72"/>
     <path d="
M49.6094 0
L42 0
L42 7.51562
Q33.7969 -1.21875 24.7031 -1.21875
Q10.4062 -1.21875 10.4062 16.1094
L10.4062 50.875
L18.0156 50.875
L18.0156 18.3125
Q18.0156 11.8125 20.0625 8.60938
Q22.125 5.42188 27 5.42188
Q33.9844 5.42188 42 14.1094
L42 50.875
L49.6094 50.875
z
" id="AndaleMono-75"/>
     <path d="
M24.6094 19.1875
Q17.4844 15.7188 17.4844 13.0938
Q17.4844 11.6719 19.1094 10.6875
Q20.75 9.71875 23.5781 9.71875
L40.7188 10.2031
Q46.8281 10.2031 50.2188 7.21875
Q53.6094 4.25 53.6094 -1.21875
Q53.6094 -9.85938 45.8906 -14.9844
Q38.1875 -20.125 27.875 -20.125
Q19.4375 -20.125 14.0625 -16.5781
Q8.6875 -13.0312 8.6875 -7.42188
Q8.6875 -1.3125 17 2.875
Q10.1094 6.10938 10.1094 10.7969
Q10.1094 16.1562 19 20.7969
Q14.8906 23.2969 12.6875 27.25
Q10.5 31.2031 10.5 35.5938
Q10.5 42.7812 15.375 47.3906
Q20.2656 52 27.5938 52
Q32.8594 52 37.1094 49.8125
L52.2031 52.0938
L52.2031 44.6719
L42.4844 44.6719
Q44.6719 40.8281 44.6719 35.5938
Q44.6719 28.6562 39.8438 23.875
Q35.0156 19.0938 27.5938 19.0938
Q26.0312 19.0938 24.6094 19.1875
M27.5938 25
Q31.7812 25 34.4375 27.9062
Q37.1094 30.8125 37.1094 35.5
Q37.1094 40.4375 34.5156 43.2188
Q31.9375 46 27.5938 46
Q23.5312 46 20.7656 43.0938
Q18.0156 40.1875 18.0156 35.5
Q18.0156 30.9062 20.7656 27.9531
Q23.5312 25 27.5938 25
M27.875 -14.2031
Q35.4062 -14.2031 40.7031 -10.8594
Q46 -7.51562 46 -2.59375
Q46 2.48438 38.4844 2.48438
Q35.9844 2.48438 29.8906 2.20312
Q26.0312 2 23.8281 2
Q22.75 2 20.4844 0.234375
Q18.2188 -1.51562 17.0156 -3.29688
Q15.8281 -5.07812 15.8281 -6.98438
Q15.8281 -9.96875 19.1406 -12.0781
Q22.4688 -14.2031 27.875 -14.2031" id="AndaleMono-67"/>
     <path d="
M51.2188 25.2031
L16.3125 25.2031
Q16.3125 16.5469 21.3125 10.9375
Q26.3125 5.32812 33.5938 5.32812
Q40.5312 5.32812 47.9062 7.8125
L49.2188 1.70312
Q42.4844 -1.3125 33.5 -1.3125
Q22.1719 -1.3125 15.2344 5.95312
Q8.29688 13.2344 8.29688 25.5938
Q8.29688 37.7031 14.5156 44.8906
Q20.75 52.0938 30.6094 52.0938
Q39.4062 52.0938 45.3125 45.4062
Q51.2188 38.7188 51.2188 27.5938
z

M42.9219 31.3906
Q42.9219 37.3594 39.2031 41.4375
Q35.5 45.5156 30.9062 45.5156
Q25 45.5156 21.1094 41.6094
Q17.2344 37.7031 16.7969 31.3906
z
" id="AndaleMono-65"/>
     <path d="
M52 50.875
L32.7188 0
Q28.5156 -11.2344 24.3906 -15.6719
Q20.2656 -20.125 14.9844 -20.125
Q10.2969 -20.125 5.71875 -18.4062
L6.98438 -12.3125
Q10.6875 -13.4844 13.625 -13.4844
Q17.7188 -13.4844 20.3594 -10.2969
Q23 -7.125 25.6875 0.09375
L6.59375 50.875
L14.8906 50.875
L29.2969 10.2969
L43.7031 50.875
z
" id="AndaleMono-79"/>
     <path id="AndaleMono-20"/>
     <path d="
M50.9844 0
L43.4062 0
Q42.4844 3.07812 42.4844 8.20312
Q35.9844 -1.3125 24.8125 -1.3125
Q19.1406 -1.3125 14.8125 2.70312
Q10.5 6.73438 10.5 13.0938
Q10.5 16.8438 12.0156 19.7188
Q13.5312 22.6094 16.4531 24.5781
Q19.3906 26.5625 23.5781 27.7031
Q27.7812 28.8594 33.5469 29.2969
L42.0938 29.9844
L42.0938 32.4219
Q42.0938 45.5156 29.8906 45.5156
Q27 45.5156 22.5781 44.2656
Q18.1719 43.0156 14.9844 41.3125
L12.9844 46.7812
Q23.3906 52.0938 32.3281 52.0938
Q49.7031 52.0938 49.7031 33.6875
L49.7031 11.8125
Q49.7031 5.17188 50.9844 0
M42.0938 15.0938
L42.0938 24.3125
Q31.7812 23.3906 27.9531 22.5781
Q24.125 21.7812 21.3125 19.5781
Q18.5 17.3906 18.5 13.625
Q18.5 10.2031 20.8906 8.09375
Q23.2969 6 27 6
Q31.0625 6 35.0625 8.42188
Q39.0625 10.8438 42.0938 15.0938" id="AndaleMono-61"/>
     <path d="
M29.9844 52.0938
Q40.4844 52.0938 46.6719 44.7656
Q52.875 37.4531 52.875 25.4844
Q52.875 13.4219 46.6719 6.04688
Q40.4844 -1.3125 29.9844 -1.3125
Q19.4375 -1.3125 13.25 6.03125
Q7.07812 13.375 7.07812 25.4844
Q7.07812 37.5 13.2812 44.7969
Q19.4844 52.0938 29.9844 52.0938
M29.9844 5.32812
Q36.9219 5.32812 40.9219 11.1875
Q44.9219 17.0469 44.9219 25.3906
Q44.9219 34.1875 40.9688 39.8438
Q37.0156 45.5156 29.9844 45.5156
Q22.9062 45.5156 19 39.9219
Q15.0938 34.3281 15.0938 25.3906
Q15.0938 16.8906 19.0469 11.1094
Q23 5.32812 29.9844 5.32812" id="AndaleMono-6f"/>
     <path d="
M55.6094 68.8906
L34.0781 29.5
L34.0781 0
L26.125 0
L26.125 29.5
L4.59375 68.8906
L13.625 68.8906
L30.0781 37.8906
L46.5781 68.8906
z
" id="AndaleMono-59"/>
     <path d="
M49.7031 0
L42.0938 0
L42.0938 32.625
Q42.0938 39.4062 39.9219 42.4531
Q37.75 45.5156 33.1094 45.5156
Q26.125 45.5156 18.1094 36.8125
L18.1094 0
L10.5 0
L10.5 50.875
L18.1094 50.875
L18.1094 43.4062
Q26.3125 52.0938 35.4062 52.0938
Q49.7031 52.0938 49.7031 34.8125
z
" id="AndaleMono-6e"/>
     <path d="
M10.2031 68.8906
L23.7812 68.8906
Q37.3125 68.8906 45.4531 59.6875
Q53.6094 50.4844 53.6094 34.4219
Q53.6094 18.0156 45.3281 9
Q37.0625 0 24.125 0
L10.2031 0
z

M18.2188 6.98438
L23.875 6.98438
Q33.6875 6.98438 39.4062 14.25
Q45.125 21.5312 45.125 34.4219
Q45.125 47.2188 39.375 54.5625
Q33.6406 61.9219 23.875 61.9219
L18.2188 61.9219
z
" id="AndaleMono-44"/>
    </defs>
    <g transform="translate(223.45 54.6)scale(0.1 -0.1)">
     <use xlink:href="#AndaleMono-59"/>
     <use x="60.009765625" xlink:href="#AndaleMono-6f"/>
     <use x="120.01953125" xlink:href="#AndaleMono-75"/>
     <use x="180.029296875" xlink:href="#AndaleMono-6e"/>
     <use x="240.0390625" xlink:href="#AndaleMono-67"/>
     <use x="300.048828125" xlink:href="#AndaleMono-65"/>
     <use x="360.05859375" xlink:href="#AndaleMono-72"/>
     <use x="420.068359375" xlink:href="#AndaleMono-20"/>
     <use x="480.078125" xlink:href="#AndaleMono-44"/>
     <use x="540.087890625" xlink:href="#AndaleMono-72"/>
     <use x="600.09765625" xlink:href="#AndaleMono-79"/>
     <use x="660.107421875" xlink:href="#AndaleMono-61"/>
     <use x="720.1171875" xlink:href="#AndaleMono-73"/>
    </g>
   </g>
   <g id="legend_1">
    <g id="patch_8">
     <path d="
M481.352 88.845
L639.6 88.845
Q642 88.845 642 86.445
L642 37.2
Q642 34.8 639.6 34.8
L481.352 34.8
Q478.952 34.8 478.952 37.2
L478.952 86.445
Q478.952 88.845 481.352 88.845
z
" style="fill:#eeeeee;stroke:#bcbcbc;stroke-width:0.5;"/>
    </g>
    <g id="line2d_46">
     <path d="
M483.752 43.8
L507.752 43.8" style="fill:none;stroke:#348abd;stroke-linecap:square;stroke-width:2;"/>
    </g>
    <g id="line2d_47"/>
    <g id="text_17">
     <!-- NGRIP Greeland -->
     <defs>
      <path d="
M49.5156 0
L41.8906 0
L41.8906 7.32812
Q39.5469 3.5625 35.1719 1.125
Q30.8125 -1.3125 25.9844 -1.3125
Q17.2344 -1.3125 12.1562 6.46875
Q7.07812 14.2656 7.07812 26.2188
Q7.07812 37.4062 12.375 44.75
Q17.6719 52.0938 26.4219 52.0938
Q36.0312 52.0938 41.8906 44.2812
L41.8906 68.8906
L49.5156 68.8906
z

M41.8906 15.5781
L41.8906 36.7188
Q36.4219 45.5156 28.7188 45.5156
Q22.4062 45.5156 18.75 39.9219
Q15.0938 34.3281 15.0938 25.7812
Q15.0938 17 18.5312 11.25
Q21.9688 5.51562 27.9844 5.51562
Q30.8594 5.51562 33.7812 7.07812
Q36.7188 8.64062 39.2969 11.7656
Q41.8906 14.8906 41.8906 15.5781" id="AndaleMono-64"/>
      <path d="
M45.3125 0
L14.0156 0
L14.0156 6.98438
L25.875 6.98438
L25.875 61.9219
L14.0156 61.9219
L14.0156 68.8906
L45.3125 68.8906
L45.3125 61.9219
L33.8906 61.9219
L33.8906 6.98438
L45.3125 6.98438
z
" id="AndaleMono-49"/>
      <path d="
M50.7812 0
L41.8906 0
L17.1875 54.3906
L17.1875 0
L9.1875 0
L9.1875 68.8906
L18.1094 68.8906
L42.9219 14.9844
L42.9219 68.8906
L50.7812 68.8906
z
" id="AndaleMono-4e"/>
      <path d="
M46 0
L25.2031 0
L25.2031 62.3125
L11.9219 62.3125
L11.9219 68.8906
L32.8125 68.8906
L32.8125 6.59375
L46 6.59375
z
" id="AndaleMono-6c"/>
      <path d="
M52.2031 4.89062
Q43.75 -1.3125 33.5 -1.3125
Q20.0625 -1.3125 13.125 7.78125
Q6.20312 16.8906 6.20312 34.4219
Q6.20312 51.375 12.9062 60.7969
Q19.625 70.2188 33.5 70.2188
Q38.4844 70.2188 43.3594 68.9375
Q48.25 67.6719 51.2188 65.5781
L48.5781 59.2812
Q41.7031 63.1875 33.5 63.1875
Q24.0312 63.1875 19.3594 56.25
Q14.7031 49.3125 14.7031 34.4219
Q14.7031 5.71875 33.5 5.71875
Q40.5781 5.71875 44.1875 8.6875
L44.1875 25.6875
L31.7812 25.6875
L31.7812 32.625
L52.2031 32.625
z
" id="AndaleMono-47"/>
      <path d="
M57.3281 0
L47.3125 0
L27.0938 31.2969
L18.2188 31.2969
L18.2188 0
L10.2031 0
L10.2031 68.8906
L29.6875 68.8906
Q39.5 68.8906 45.1875 64.125
Q50.875 59.375 50.875 50.875
Q50.875 44.5781 46.7188 39.6719
Q42.5781 34.7656 35.2969 33.0156
z

M18.2188 38.2812
L28.3281 38.2812
Q34.6719 38.2812 38.625 41.7188
Q42.5781 45.1719 42.5781 50.3906
Q42.5781 61.9219 28.5156 61.9219
L18.2188 61.9219
z
" id="AndaleMono-52"/>
      <path d="
M12.5 68.8906
L29.9844 68.8906
Q39.8906 68.8906 45.8438 63.9062
Q51.8125 58.9375 51.8125 50.2031
Q51.8125 41.4062 45.875 36.1562
Q39.9375 30.9062 30.3281 30.9062
L20.5156 30.9062
L20.5156 0
L12.5 0
z

M20.5156 37.8906
L29.2031 37.8906
Q43.3125 37.8906 43.3125 49.7031
Q43.3125 55.1719 39.4688 58.5469
Q35.6406 61.9219 29.5938 61.9219
L20.5156 61.9219
z
" id="AndaleMono-50"/>
     </defs>
     <g transform="translate(517.351875 48.0)scale(0.12 -0.12)">
      <use xlink:href="#AndaleMono-4e"/>
      <use x="60.009765625" xlink:href="#AndaleMono-47"/>
      <use x="120.01953125" xlink:href="#AndaleMono-52"/>
      <use x="180.029296875" xlink:href="#AndaleMono-49"/>
      <use x="240.0390625" xlink:href="#AndaleMono-50"/>
      <use x="300.048828125" xlink:href="#AndaleMono-20"/>
      <use x="360.05859375" xlink:href="#AndaleMono-47"/>
      <use x="420.068359375" xlink:href="#AndaleMono-72"/>
      <use x="480.078125" xlink:href="#AndaleMono-65"/>
      <use x="540.087890625" xlink:href="#AndaleMono-65"/>
      <use x="600.09765625" xlink:href="#AndaleMono-6c"/>
      <use x="660.107421875" xlink:href="#AndaleMono-61"/>
      <use x="720.1171875" xlink:href="#AndaleMono-6e"/>
      <use x="780.126953125" xlink:href="#AndaleMono-64"/>
     </g>
    </g>
    <g id="line2d_48">
     <path d="
M483.752 60.615
L507.752 60.615" style="fill:none;stroke:#7a68a6;stroke-linecap:square;stroke-width:2;"/>
    </g>
    <g id="line2d_49"/>
    <g id="text_18">
     <!-- Vostok (Antartic) -->
     <defs>
      <path d="
M49.5156 1.70312
Q42.875 -1.3125 34.9062 -1.3125
Q22.9062 -1.3125 15.75 5.98438
Q8.59375 13.2812 8.59375 25.3906
Q8.59375 37.5 15.7969 44.7969
Q23 52.0938 34.7188 52.0938
Q42.3906 52.0938 49.3125 49.4219
L47.3125 43.1094
Q40.375 45.5156 34.8125 45.5156
Q26.4219 45.5156 21.5156 40.0938
Q16.6094 34.6719 16.6094 25.3906
Q16.6094 16.8906 21.6875 11.1094
Q26.7656 5.32812 34.9062 5.32812
Q41.3594 5.32812 48.1875 7.8125
z
" id="AndaleMono-63"/>
      <path d="
M50.2031 2.29688
Q42.5312 -1.21875 35.1094 -1.21875
Q21.4844 -1.21875 21.4844 13.1875
L21.4844 44.2812
L11.7188 44.2812
L11.7188 50.875
L21.4844 50.875
L21.4844 64.7969
L28.9062 64.7969
L28.9062 50.875
L46.1875 50.875
L46.1875 44.2812
L28.9062 44.2812
L28.9062 15.1875
Q28.9062 10.5469 30.9531 7.98438
Q33.0156 5.42188 36.5312 5.42188
Q42.7812 5.42188 48.875 8.20312
z
" id="AndaleMono-74"/>
      <path d="
M46.7812 -10.2031
L43.7969 -14.4062
Q32.9062 -6.15625 27.1875 4.78125
Q21.4844 15.7188 21.4844 27.875
Q21.4844 40.1406 27.1406 51
Q32.8125 61.8594 43.7969 70.125
L46.7812 65.9219
Q37.8438 57.9062 33.9062 49.1406
Q29.9844 40.375 29.9844 27.9844
Q29.9844 15.1406 34.0625 6.375
Q38.1406 -2.39062 46.7812 -10.2031" id="AndaleMono-28"/>
      <path d="
M16.2188 70.125
Q27.1562 61.8594 32.8125 51
Q38.4844 40.1406 38.4844 27.875
Q38.4844 15.7188 32.7812 4.78125
Q27.0938 -6.15625 16.2188 -14.4062
L13.1875 -10.2031
Q22.125 -2.29688 26.0469 6.60938
Q29.9844 15.5312 29.9844 27.9844
Q29.9844 40.8281 25.9219 49.4688
Q21.875 58.1094 13.1875 65.9219
z
" id="AndaleMono-29"/>
      <path d="
M33.2969 70.125
Q35.4531 70.125 36.9688 68.5781
Q38.4844 67.0469 38.4844 64.8906
Q38.4844 62.6406 36.9844 61.125
Q35.5 59.625 33.2969 59.625
Q31.2969 59.625 29.75 61.2031
Q28.2188 62.7969 28.2188 64.8906
Q28.2188 67 29.75 68.5625
Q31.2969 70.125 33.2969 70.125
M37.0156 0
L29.3906 0
L29.3906 44.2812
L14.4062 44.2812
L14.4062 50.875
L37.0156 50.875
z
" id="AndaleMono-69"/>
      <path d="
M54.6875 0
L44.6719 0
L23.0938 25.2969
L18.1094 21
L18.1094 0
L10.5 0
L10.5 68.8906
L18.1094 68.8906
L18.1094 29.3906
L42 50.875
L51.7031 50.875
L28.5156 30.0781
z
" id="AndaleMono-6b"/>
      <path d="
M57.4219 0
L49.0312 0
L41.4062 24.125
L18.7969 24.125
L11.0781 0
L2.78125 0
L25.2969 68.8906
L34.9062 68.8906
z

M39.1094 31.1094
L30.0781 59.625
L21.0938 31.1094
z
" id="AndaleMono-41"/>
      <path d="
M57.1719 68.8906
L34.7188 0
L25.0938 0
L2.59375 68.8906
L10.9844 68.8906
L29.8906 9.28125
L48.875 68.8906
z
" id="AndaleMono-56"/>
     </defs>
     <g transform="translate(517.351875 64.815)scale(0.12 -0.12)">
      <use xlink:href="#AndaleMono-56"/>
      <use x="60.009765625" xlink:href="#AndaleMono-6f"/>
      <use x="120.01953125" xlink:href="#AndaleMono-73"/>
      <use x="180.029296875" xlink:href="#AndaleMono-74"/>
      <use x="240.0390625" xlink:href="#AndaleMono-6f"/>
      <use x="300.048828125" xlink:href="#AndaleMono-6b"/>
      <use x="360.05859375" xlink:href="#AndaleMono-20"/>
      <use x="420.068359375" xlink:href="#AndaleMono-28"/>
      <use x="480.078125" xlink:href="#AndaleMono-41"/>
      <use x="540.087890625" xlink:href="#AndaleMono-6e"/>
      <use x="600.09765625" xlink:href="#AndaleMono-74"/>
      <use x="660.107421875" xlink:href="#AndaleMono-61"/>
      <use x="720.1171875" xlink:href="#AndaleMono-72"/>
      <use x="780.126953125" xlink:href="#AndaleMono-74"/>
      <use x="840.13671875" xlink:href="#AndaleMono-69"/>
      <use x="900.146484375" xlink:href="#AndaleMono-63"/>
      <use x="960.15625" xlink:href="#AndaleMono-29"/>
     </g>
    </g>
    <g id="line2d_50">
     <path d="
M483.752 77.43
L507.752 77.43" style="fill:none;stroke:#a60628;stroke-linecap:square;stroke-width:2;"/>
    </g>
    <g id="line2d_51"/>
    <g id="text_19">
     <!-- EPICA (Antartic) -->
     <defs>
      <path d="
M52.2969 4.29688
Q44.1875 -1.3125 33.5 -1.3125
Q20.125 -1.3125 13.1562 7.85938
Q6.20312 17.0469 6.20312 34.4219
Q6.20312 51.2188 12.9375 60.7188
Q19.6719 70.2188 33.5 70.2188
Q38.4844 70.2188 43.3594 68.9375
Q48.25 67.6719 51.2188 65.5781
L48.5781 59.2812
Q41.7031 63.1875 33.5 63.1875
Q23.9688 63.1875 19.3281 56.2656
Q14.7031 49.3594 14.7031 34.4219
Q14.7031 5.71875 33.5 5.71875
Q41.4531 5.71875 49.8125 10.5938
z
" id="AndaleMono-43"/>
      <path d="
M48.4844 0
L12.5 0
L12.5 68.8906
L48.1875 68.8906
L48.1875 61.9219
L20.5156 61.9219
L20.5156 40.5781
L47.125 40.5781
L47.125 33.5938
L20.5156 33.5938
L20.5156 6.98438
L48.4844 6.98438
z
" id="AndaleMono-45"/>
     </defs>
     <g transform="translate(517.351875 81.63)scale(0.12 -0.12)">
      <use xlink:href="#AndaleMono-45"/>
      <use x="60.009765625" xlink:href="#AndaleMono-50"/>
      <use x="120.01953125" xlink:href="#AndaleMono-49"/>
      <use x="180.029296875" xlink:href="#AndaleMono-43"/>
      <use x="240.0390625" xlink:href="#AndaleMono-41"/>
      <use x="300.048828125" xlink:href="#AndaleMono-20"/>
      <use x="360.05859375" xlink:href="#AndaleMono-28"/>
      <use x="420.068359375" xlink:href="#AndaleMono-41"/>
      <use x="480.078125" xlink:href="#AndaleMono-6e"/>
      <use x="540.087890625" xlink:href="#AndaleMono-74"/>
      <use x="600.09765625" xlink:href="#AndaleMono-61"/>
      <use x="660.107421875" xlink:href="#AndaleMono-72"/>
      <use x="720.1171875" xlink:href="#AndaleMono-74"/>
      <use x="780.126953125" xlink:href="#AndaleMono-69"/>
      <use x="840.13671875" xlink:href="#AndaleMono-63"/>
      <use x="900.146484375" xlink:href="#AndaleMono-29"/>
     </g>
    </g>
   </g>
  </g>
 </g>
 <defs>
  <clipPath id="p9f76a1e9e4">
   <rect height="223.2" width="558.0" x="90.0" y="28.8"/>
  </clipPath>
 </defs>
</svg>
